<mxfile host="65bd71144e" pages="6">
    <diagram id="2w70ketxQT6TgcxcG2Dm" name="SchemaER_V1">
        <mxGraphModel dx="2692" dy="1168" grid="1" gridSize="10" guides="1" tooltips="1" connect="1" arrows="1" fold="1" page="1" pageScale="1" pageWidth="827" pageHeight="1169" math="0" shadow="0">
            <root>
                <mxCell id="0"/>
                <mxCell id="1" parent="0"/>
                <mxCell id="6T-K_Rv2iOl44meaqVSM-1" value="AEROMOBILE" style="whiteSpace=wrap;html=1;align=center;" vertex="1" parent="1">
                    <mxGeometry x="-550" y="640" width="100" height="40" as="geometry"/>
                </mxCell>
                <mxCell id="6T-K_Rv2iOl44meaqVSM-2" value="Di" style="shape=rhombus;perimeter=rhombusPerimeter;whiteSpace=wrap;html=1;align=center;" vertex="1" parent="1">
                    <mxGeometry x="-550" y="760" width="100" height="50" as="geometry"/>
                </mxCell>
                <mxCell id="6T-K_Rv2iOl44meaqVSM-4" value="(1,1)" style="endArrow=none;html=1;rounded=0;exitX=0.5;exitY=1;exitDx=0;exitDy=0;entryX=0.5;entryY=0;entryDx=0;entryDy=0;" edge="1" parent="1" source="6T-K_Rv2iOl44meaqVSM-1" target="6T-K_Rv2iOl44meaqVSM-2">
                    <mxGeometry relative="1" as="geometry">
                        <mxPoint x="-630" y="710" as="sourcePoint"/>
                        <mxPoint x="-470" y="710" as="targetPoint"/>
                    </mxGeometry>
                </mxCell>
                <mxCell id="6T-K_Rv2iOl44meaqVSM-5" value="(1,N)" style="endArrow=none;html=1;rounded=0;entryX=0.5;entryY=1;entryDx=0;entryDy=0;exitX=0.5;exitY=0;exitDx=0;exitDy=0;" edge="1" parent="1" source="6T-K_Rv2iOl44meaqVSM-16" target="6T-K_Rv2iOl44meaqVSM-2">
                    <mxGeometry relative="1" as="geometry">
                        <mxPoint x="-500" y="840" as="sourcePoint"/>
                        <mxPoint x="-460" y="720" as="targetPoint"/>
                    </mxGeometry>
                </mxCell>
                <mxCell id="6T-K_Rv2iOl44meaqVSM-6" value="id_aereo" style="ellipse;whiteSpace=wrap;html=1;align=left;fontStyle=0;verticalAlign=middle;horizontal=1;labelPosition=right;verticalLabelPosition=middle;labelBackgroundColor=none;fillStyle=auto;fillColor=#050505;" vertex="1" parent="1">
                    <mxGeometry x="-430" y="655" width="10" height="10" as="geometry"/>
                </mxCell>
                <mxCell id="6T-K_Rv2iOl44meaqVSM-7" style="edgeStyle=orthogonalEdgeStyle;rounded=0;orthogonalLoop=1;jettySize=auto;html=1;entryX=0;entryY=0.5;entryDx=0;entryDy=0;endArrow=none;endFill=0;" edge="1" parent="1" source="6T-K_Rv2iOl44meaqVSM-1" target="6T-K_Rv2iOl44meaqVSM-6">
                    <mxGeometry relative="1" as="geometry"/>
                </mxCell>
                <mxCell id="6T-K_Rv2iOl44meaqVSM-9" value="(1,1)" style="rounded=0;orthogonalLoop=1;jettySize=auto;html=1;entryX=0.75;entryY=1;entryDx=0;entryDy=0;endArrow=none;endFill=0;" edge="1" parent="1" source="6T-K_Rv2iOl44meaqVSM-10" target="6T-K_Rv2iOl44meaqVSM-1">
                    <mxGeometry relative="1" as="geometry"/>
                </mxCell>
                <mxCell id="6T-K_Rv2iOl44meaqVSM-10" value="Costruito" style="shape=rhombus;perimeter=rhombusPerimeter;whiteSpace=wrap;html=1;align=center;" vertex="1" parent="1">
                    <mxGeometry x="-420" y="760" width="100" height="50" as="geometry"/>
                </mxCell>
                <mxCell id="6T-K_Rv2iOl44meaqVSM-11" value="(1,1)" style="rounded=0;orthogonalLoop=1;jettySize=auto;html=1;entryX=0.25;entryY=1;entryDx=0;entryDy=0;endArrow=none;endFill=0;" edge="1" parent="1" source="6T-K_Rv2iOl44meaqVSM-12" target="6T-K_Rv2iOl44meaqVSM-1">
                    <mxGeometry relative="1" as="geometry"/>
                </mxCell>
                <mxCell id="6T-K_Rv2iOl44meaqVSM-12" value="Trasporta" style="shape=rhombus;perimeter=rhombusPerimeter;whiteSpace=wrap;html=1;align=center;" vertex="1" parent="1">
                    <mxGeometry x="-681" y="760" width="100" height="50" as="geometry"/>
                </mxCell>
                <mxCell id="6T-K_Rv2iOl44meaqVSM-13" value="CARICO" style="whiteSpace=wrap;html=1;align=center;" vertex="1" parent="1">
                    <mxGeometry x="-681" y="855" width="100" height="40" as="geometry"/>
                </mxCell>
                <mxCell id="6T-K_Rv2iOl44meaqVSM-14" value="(1,N)" style="endArrow=none;html=1;rounded=0;entryX=0.5;entryY=1;entryDx=0;entryDy=0;exitX=0.5;exitY=0;exitDx=0;exitDy=0;" edge="1" parent="1" source="6T-K_Rv2iOl44meaqVSM-13" target="6T-K_Rv2iOl44meaqVSM-12">
                    <mxGeometry relative="1" as="geometry">
                        <mxPoint x="-619.99" y="840" as="sourcePoint"/>
                        <mxPoint x="-620.24" y="810" as="targetPoint"/>
                    </mxGeometry>
                </mxCell>
                <mxCell id="6T-K_Rv2iOl44meaqVSM-15" value="(1,N)" style="endArrow=none;html=1;rounded=0;entryX=0.5;entryY=1;entryDx=0;entryDy=0;exitX=0.5;exitY=0;exitDx=0;exitDy=0;" edge="1" parent="1" source="6T-K_Rv2iOl44meaqVSM-17" target="6T-K_Rv2iOl44meaqVSM-10">
                    <mxGeometry relative="1" as="geometry">
                        <mxPoint x="-369.87" y="840" as="sourcePoint"/>
                        <mxPoint x="-370.12" y="810" as="targetPoint"/>
                    </mxGeometry>
                </mxCell>
                <mxCell id="6T-K_Rv2iOl44meaqVSM-16" value="SPEC. TEC." style="whiteSpace=wrap;html=1;align=center;" vertex="1" parent="1">
                    <mxGeometry x="-550" y="855" width="100" height="40" as="geometry"/>
                </mxCell>
                <mxCell id="6T-K_Rv2iOl44meaqVSM-17" value="AZIENDA COST." style="whiteSpace=wrap;html=1;align=center;" vertex="1" parent="1">
                    <mxGeometry x="-420" y="855" width="100" height="40" as="geometry"/>
                </mxCell>
                <mxCell id="6T-K_Rv2iOl44meaqVSM-18" style="rounded=0;orthogonalLoop=1;jettySize=auto;html=1;entryX=0.75;entryY=1;entryDx=0;entryDy=0;endArrow=none;endFill=0;" edge="1" parent="1" source="6T-K_Rv2iOl44meaqVSM-19" target="6T-K_Rv2iOl44meaqVSM-13">
                    <mxGeometry relative="1" as="geometry"/>
                </mxCell>
                <mxCell id="6T-K_Rv2iOl44meaqVSM-19" value="carico_max" style="ellipse;whiteSpace=wrap;html=1;align=center;fontFamily=Helvetica;fontSize=11;fontColor=default;labelPosition=center;verticalLabelPosition=bottom;verticalAlign=top;" vertex="1" parent="1">
                    <mxGeometry x="-611" y="920" width="10" height="10" as="geometry"/>
                </mxCell>
                <mxCell id="6T-K_Rv2iOl44meaqVSM-20" style="rounded=0;orthogonalLoop=1;jettySize=auto;html=1;entryX=0.25;entryY=1;entryDx=0;entryDy=0;endArrow=none;endFill=0;" edge="1" parent="1" source="6T-K_Rv2iOl44meaqVSM-21" target="6T-K_Rv2iOl44meaqVSM-13">
                    <mxGeometry relative="1" as="geometry"/>
                </mxCell>
                <mxCell id="6T-K_Rv2iOl44meaqVSM-21" value="persone_max" style="ellipse;whiteSpace=wrap;html=1;align=center;fontFamily=Helvetica;fontSize=11;fontColor=default;labelPosition=center;verticalLabelPosition=bottom;verticalAlign=top;" vertex="1" parent="1">
                    <mxGeometry x="-666.25" y="930" width="10" height="10" as="geometry"/>
                </mxCell>
                <mxCell id="6T-K_Rv2iOl44meaqVSM-22" style="shape=connector;rounded=0;orthogonalLoop=1;jettySize=auto;html=1;entryX=0.25;entryY=1;entryDx=0;entryDy=0;labelBackgroundColor=default;strokeColor=default;align=center;verticalAlign=middle;fontFamily=Helvetica;fontSize=11;fontColor=default;endArrow=none;endFill=0;" edge="1" parent="1" source="6T-K_Rv2iOl44meaqVSM-23" target="6T-K_Rv2iOl44meaqVSM-16">
                    <mxGeometry relative="1" as="geometry">
                        <mxPoint x="-537.5" y="940" as="targetPoint"/>
                    </mxGeometry>
                </mxCell>
                <mxCell id="6T-K_Rv2iOl44meaqVSM-23" value="peso" style="ellipse;whiteSpace=wrap;html=1;align=center;fontFamily=Helvetica;fontSize=11;fontColor=default;labelPosition=center;verticalLabelPosition=bottom;verticalAlign=middle;" vertex="1" parent="1">
                    <mxGeometry x="-547.25" y="920" width="10" height="10" as="geometry"/>
                </mxCell>
                <mxCell id="6T-K_Rv2iOl44meaqVSM-24" style="shape=connector;rounded=0;orthogonalLoop=1;jettySize=auto;html=1;entryX=0.5;entryY=1;entryDx=0;entryDy=0;labelBackgroundColor=default;strokeColor=default;align=center;verticalAlign=middle;fontFamily=Helvetica;fontSize=11;fontColor=default;endArrow=none;endFill=0;" edge="1" parent="1" source="6T-K_Rv2iOl44meaqVSM-25" target="6T-K_Rv2iOl44meaqVSM-16">
                    <mxGeometry relative="1" as="geometry">
                        <mxPoint x="-502.5" y="946" as="targetPoint"/>
                    </mxGeometry>
                </mxCell>
                <mxCell id="6T-K_Rv2iOl44meaqVSM-25" value="lunghezza" style="ellipse;whiteSpace=wrap;html=1;align=center;fontFamily=Helvetica;fontSize=11;fontColor=default;labelPosition=center;verticalLabelPosition=bottom;verticalAlign=middle;" vertex="1" parent="1">
                    <mxGeometry x="-517.25" y="940" width="10" height="10" as="geometry"/>
                </mxCell>
                <mxCell id="6T-K_Rv2iOl44meaqVSM-26" style="shape=connector;rounded=0;orthogonalLoop=1;jettySize=auto;html=1;entryX=0.75;entryY=1;entryDx=0;entryDy=0;labelBackgroundColor=default;strokeColor=default;align=center;verticalAlign=middle;fontFamily=Helvetica;fontSize=11;fontColor=default;endArrow=none;endFill=0;" edge="1" parent="1" source="6T-K_Rv2iOl44meaqVSM-27" target="6T-K_Rv2iOl44meaqVSM-16">
                    <mxGeometry relative="1" as="geometry">
                        <mxPoint x="-466.5" y="940" as="targetPoint"/>
                    </mxGeometry>
                </mxCell>
                <mxCell id="6T-K_Rv2iOl44meaqVSM-27" value="apertura_alare" style="ellipse;whiteSpace=wrap;html=1;align=center;fontFamily=Helvetica;fontSize=11;fontColor=default;labelPosition=center;verticalLabelPosition=bottom;verticalAlign=middle;" vertex="1" parent="1">
                    <mxGeometry x="-467.25" y="920" width="10" height="10" as="geometry"/>
                </mxCell>
                <mxCell id="6T-K_Rv2iOl44meaqVSM-28" style="shape=connector;rounded=0;orthogonalLoop=1;jettySize=auto;html=1;entryX=0.5;entryY=1;entryDx=0;entryDy=0;labelBackgroundColor=default;strokeColor=default;align=center;verticalAlign=middle;fontFamily=Helvetica;fontSize=11;fontColor=default;endArrow=none;endFill=0;" edge="1" parent="1" source="6T-K_Rv2iOl44meaqVSM-29" target="6T-K_Rv2iOl44meaqVSM-17">
                    <mxGeometry relative="1" as="geometry">
                        <mxPoint x="-363.37" y="914" as="targetPoint"/>
                    </mxGeometry>
                </mxCell>
                <mxCell id="6T-K_Rv2iOl44meaqVSM-29" value="nome" style="ellipse;whiteSpace=wrap;html=1;align=center;fontFamily=Helvetica;fontSize=11;fontColor=default;labelPosition=center;verticalLabelPosition=bottom;verticalAlign=middle;fillColor=#050505;" vertex="1" parent="1">
                    <mxGeometry x="-375" y="910" width="10" height="10" as="geometry"/>
                </mxCell>
                <mxCell id="6T-K_Rv2iOl44meaqVSM-30" style="edgeStyle=orthogonalEdgeStyle;rounded=0;orthogonalLoop=1;jettySize=auto;html=1;startArrow=none;startFill=0;endArrow=none;endFill=0;" edge="1" parent="1" source="6T-K_Rv2iOl44meaqVSM-31">
                    <mxGeometry relative="1" as="geometry">
                        <mxPoint x="-596.25" y="905" as="targetPoint"/>
                    </mxGeometry>
                </mxCell>
                <mxCell id="6T-K_Rv2iOl44meaqVSM-31" value="" style="ellipse;whiteSpace=wrap;html=1;align=center;fontFamily=Helvetica;fontSize=11;fontColor=default;labelPosition=center;verticalLabelPosition=bottom;verticalAlign=middle;fillColor=#050505;" vertex="1" parent="1">
                    <mxGeometry x="-691" y="900" width="10" height="10" as="geometry"/>
                </mxCell>
                <mxCell id="6T-K_Rv2iOl44meaqVSM-32" style="edgeStyle=orthogonalEdgeStyle;rounded=0;orthogonalLoop=1;jettySize=auto;html=1;startArrow=none;startFill=0;endArrow=none;endFill=0;" edge="1" parent="1" source="6T-K_Rv2iOl44meaqVSM-33">
                    <mxGeometry relative="1" as="geometry">
                        <mxPoint x="-464.8699999999999" y="905" as="targetPoint"/>
                    </mxGeometry>
                </mxCell>
                <mxCell id="6T-K_Rv2iOl44meaqVSM-33" value="" style="ellipse;whiteSpace=wrap;html=1;align=center;fontFamily=Helvetica;fontSize=11;fontColor=default;labelPosition=center;verticalLabelPosition=bottom;verticalAlign=middle;fillColor=#050505;" vertex="1" parent="1">
                    <mxGeometry x="-559.62" y="900" width="10" height="10" as="geometry"/>
                </mxCell>
                <mxCell id="EbwfNPkTryeAlgiO7ufV-1" style="edgeStyle=orthogonalEdgeStyle;rounded=0;orthogonalLoop=1;jettySize=auto;html=1;entryX=0.5;entryY=0;entryDx=0;entryDy=0;" edge="1" parent="1" source="EbwfNPkTryeAlgiO7ufV-2" target="EbwfNPkTryeAlgiO7ufV-7">
                    <mxGeometry relative="1" as="geometry">
                        <mxPoint x="-561" y="80.00000000000011" as="targetPoint"/>
                    </mxGeometry>
                </mxCell>
                <mxCell id="EbwfNPkTryeAlgiO7ufV-2" value="HOSTESS" style="whiteSpace=wrap;html=1;align=center;" vertex="1" parent="1">
                    <mxGeometry x="-611" y="80" width="100" height="40" as="geometry"/>
                </mxCell>
                <mxCell id="EbwfNPkTryeAlgiO7ufV-3" style="edgeStyle=orthogonalEdgeStyle;rounded=0;orthogonalLoop=1;jettySize=auto;html=1;entryX=0.5;entryY=0;entryDx=0;entryDy=0;" edge="1" parent="1" source="EbwfNPkTryeAlgiO7ufV-5" target="EbwfNPkTryeAlgiO7ufV-7">
                    <mxGeometry relative="1" as="geometry">
                        <mxPoint x="-426" y="80.00000000000011" as="targetPoint"/>
                    </mxGeometry>
                </mxCell>
                <mxCell id="EbwfNPkTryeAlgiO7ufV-4" value="DISGIUNTO" style="edgeLabel;html=1;align=center;verticalAlign=middle;resizable=0;points=[];fontSize=11;fontFamily=Helvetica;fontColor=default;" connectable="0" vertex="1" parent="EbwfNPkTryeAlgiO7ufV-3">
                    <mxGeometry x="0.0813" y="-2" relative="1" as="geometry">
                        <mxPoint x="7" as="offset"/>
                    </mxGeometry>
                </mxCell>
                <mxCell id="EbwfNPkTryeAlgiO7ufV-5" value="STEWARD" style="whiteSpace=wrap;html=1;align=center;" vertex="1" parent="1">
                    <mxGeometry x="-481" y="80" width="100" height="40" as="geometry"/>
                </mxCell>
                <mxCell id="EbwfNPkTryeAlgiO7ufV-6" style="edgeStyle=orthogonalEdgeStyle;rounded=0;orthogonalLoop=1;jettySize=auto;html=1;exitX=1;exitY=0.5;exitDx=0;exitDy=0;entryX=0;entryY=0.5;entryDx=0;entryDy=0;endArrow=none;endFill=0;" edge="1" parent="1" source="EbwfNPkTryeAlgiO7ufV-7" target="EbwfNPkTryeAlgiO7ufV-29">
                    <mxGeometry relative="1" as="geometry"/>
                </mxCell>
                <mxCell id="EbwfNPkTryeAlgiO7ufV-7" value="ASSISTENTE" style="whiteSpace=wrap;html=1;align=center;" vertex="1" parent="1">
                    <mxGeometry x="-546" y="185" width="100" height="40" as="geometry"/>
                </mxCell>
                <mxCell id="EbwfNPkTryeAlgiO7ufV-8" style="edgeStyle=orthogonalEdgeStyle;rounded=0;orthogonalLoop=1;jettySize=auto;html=1;entryX=1;entryY=0.5;entryDx=0;entryDy=0;endArrow=none;endFill=0;" edge="1" parent="1" source="EbwfNPkTryeAlgiO7ufV-9" target="EbwfNPkTryeAlgiO7ufV-30">
                    <mxGeometry relative="1" as="geometry"/>
                </mxCell>
                <mxCell id="EbwfNPkTryeAlgiO7ufV-9" value="EQUIPAGGIO" style="whiteSpace=wrap;html=1;align=center;" vertex="1" parent="1">
                    <mxGeometry x="-546" y="340" width="100" height="40" as="geometry"/>
                </mxCell>
                <mxCell id="EbwfNPkTryeAlgiO7ufV-10" value="PILOTA" style="whiteSpace=wrap;html=1;align=center;" vertex="1" parent="1">
                    <mxGeometry x="-266" y="340" width="100" height="40" as="geometry"/>
                </mxCell>
                <mxCell id="EbwfNPkTryeAlgiO7ufV-13" value="VOLO" style="whiteSpace=wrap;html=1;align=center;" vertex="1" parent="1">
                    <mxGeometry x="-546" y="485" width="100" height="40" as="geometry"/>
                </mxCell>
                <mxCell id="EbwfNPkTryeAlgiO7ufV-14" value="Compone" style="shape=rhombus;perimeter=rhombusPerimeter;whiteSpace=wrap;html=1;align=center;" vertex="1" parent="1">
                    <mxGeometry x="-546" y="255" width="100" height="50" as="geometry"/>
                </mxCell>
                <mxCell id="EbwfNPkTryeAlgiO7ufV-15" value="Comanda" style="shape=rhombus;perimeter=rhombusPerimeter;whiteSpace=wrap;html=1;align=center;" vertex="1" parent="1">
                    <mxGeometry x="-406" y="335" width="100" height="50" as="geometry"/>
                </mxCell>
                <mxCell id="EbwfNPkTryeAlgiO7ufV-16" value="Imbarca" style="shape=rhombus;perimeter=rhombusPerimeter;whiteSpace=wrap;html=1;align=center;" vertex="1" parent="1">
                    <mxGeometry x="-546" y="405" width="100" height="50" as="geometry"/>
                </mxCell>
                <mxCell id="EbwfNPkTryeAlgiO7ufV-17" value="Tratta" style="shape=rhombus;perimeter=rhombusPerimeter;whiteSpace=wrap;html=1;align=center;" vertex="1" parent="1">
                    <mxGeometry x="-546" y="555" width="100" height="50" as="geometry"/>
                </mxCell>
                <mxCell id="EbwfNPkTryeAlgiO7ufV-19" value="(1,1)" style="endArrow=none;html=1;rounded=0;exitX=0.5;exitY=1;exitDx=0;exitDy=0;entryX=0.5;entryY=0;entryDx=0;entryDy=0;" edge="1" parent="1" source="EbwfNPkTryeAlgiO7ufV-13" target="EbwfNPkTryeAlgiO7ufV-17">
                    <mxGeometry relative="1" as="geometry">
                        <mxPoint x="-586" y="555" as="sourcePoint"/>
                        <mxPoint x="-426" y="555" as="targetPoint"/>
                    </mxGeometry>
                </mxCell>
                <mxCell id="EbwfNPkTryeAlgiO7ufV-20" value="(1,1)" style="endArrow=none;html=1;rounded=0;exitX=0.5;exitY=1;exitDx=0;exitDy=0;entryX=0.5;entryY=0;entryDx=0;entryDy=0;" edge="1" parent="1" source="EbwfNPkTryeAlgiO7ufV-17" target="6T-K_Rv2iOl44meaqVSM-1">
                    <mxGeometry relative="1" as="geometry">
                        <mxPoint x="-586" y="575" as="sourcePoint"/>
                        <mxPoint x="-496" y="635" as="targetPoint"/>
                    </mxGeometry>
                </mxCell>
                <mxCell id="EbwfNPkTryeAlgiO7ufV-23" value="(1,1)" style="endArrow=none;html=1;rounded=0;entryX=0.5;entryY=0;entryDx=0;entryDy=0;exitX=0.5;exitY=1;exitDx=0;exitDy=0;" edge="1" parent="1" source="EbwfNPkTryeAlgiO7ufV-16" target="EbwfNPkTryeAlgiO7ufV-13">
                    <mxGeometry relative="1" as="geometry">
                        <mxPoint x="-496" y="455" as="sourcePoint"/>
                        <mxPoint x="-336" y="455" as="targetPoint"/>
                    </mxGeometry>
                </mxCell>
                <mxCell id="EbwfNPkTryeAlgiO7ufV-24" value="(1,1)" style="endArrow=none;html=1;rounded=0;entryX=0.5;entryY=0;entryDx=0;entryDy=0;exitX=0.5;exitY=1;exitDx=0;exitDy=0;" edge="1" parent="1" source="EbwfNPkTryeAlgiO7ufV-9" target="EbwfNPkTryeAlgiO7ufV-16">
                    <mxGeometry relative="1" as="geometry">
                        <mxPoint x="-486" y="465" as="sourcePoint"/>
                        <mxPoint x="-486" y="495" as="targetPoint"/>
                    </mxGeometry>
                </mxCell>
                <mxCell id="EbwfNPkTryeAlgiO7ufV-25" value="&lt;span style=&quot;color: rgb(0, 0, 0); font-family: Helvetica; font-size: 11px; font-style: normal; font-variant-ligatures: normal; font-variant-caps: normal; font-weight: 400; letter-spacing: normal; orphans: 2; text-align: center; text-indent: 0px; text-transform: none; widows: 2; word-spacing: 0px; -webkit-text-stroke-width: 0px; background-color: rgb(255, 255, 255); text-decoration-thickness: initial; text-decoration-style: initial; text-decoration-color: initial; float: none; display: inline !important;&quot;&gt;(2,2)&lt;/span&gt;" style="endArrow=none;html=1;rounded=0;entryX=0;entryY=0.5;entryDx=0;entryDy=0;exitX=1;exitY=0.5;exitDx=0;exitDy=0;" edge="1" parent="1" source="EbwfNPkTryeAlgiO7ufV-9" target="EbwfNPkTryeAlgiO7ufV-15">
                    <mxGeometry relative="1" as="geometry">
                        <mxPoint x="-486" y="390" as="sourcePoint"/>
                        <mxPoint x="-486" y="410" as="targetPoint"/>
                    </mxGeometry>
                </mxCell>
                <mxCell id="EbwfNPkTryeAlgiO7ufV-26" value="&lt;span style=&quot;color: rgb(0, 0, 0); font-family: Helvetica; font-size: 11px; font-style: normal; font-variant-ligatures: normal; font-variant-caps: normal; font-weight: 400; letter-spacing: normal; orphans: 2; text-align: center; text-indent: 0px; text-transform: none; widows: 2; word-spacing: 0px; -webkit-text-stroke-width: 0px; background-color: rgb(255, 255, 255); text-decoration-thickness: initial; text-decoration-style: initial; text-decoration-color: initial; float: none; display: inline !important;&quot;&gt;(1,1)&lt;/span&gt;" style="endArrow=none;html=1;rounded=0;entryX=1;entryY=0.5;entryDx=0;entryDy=0;exitX=0;exitY=0.5;exitDx=0;exitDy=0;" edge="1" parent="1" source="EbwfNPkTryeAlgiO7ufV-10" target="EbwfNPkTryeAlgiO7ufV-15">
                    <mxGeometry relative="1" as="geometry">
                        <mxPoint x="-436" y="370" as="sourcePoint"/>
                        <mxPoint x="-386" y="365" as="targetPoint"/>
                    </mxGeometry>
                </mxCell>
                <mxCell id="EbwfNPkTryeAlgiO7ufV-27" value="&lt;span style=&quot;color: rgb(0, 0, 0); font-family: Helvetica; font-size: 11px; font-style: normal; font-variant-ligatures: normal; font-variant-caps: normal; font-weight: 400; letter-spacing: normal; orphans: 2; text-align: center; text-indent: 0px; text-transform: none; widows: 2; word-spacing: 0px; -webkit-text-stroke-width: 0px; background-color: rgb(255, 255, 255); text-decoration-thickness: initial; text-decoration-style: initial; text-decoration-color: initial; float: none; display: inline !important;&quot;&gt;(1,N)&lt;/span&gt;" style="endArrow=none;html=1;rounded=0;entryX=0.5;entryY=0;entryDx=0;entryDy=0;exitX=0.5;exitY=1;exitDx=0;exitDy=0;" edge="1" parent="1" source="EbwfNPkTryeAlgiO7ufV-14" target="EbwfNPkTryeAlgiO7ufV-9">
                    <mxGeometry relative="1" as="geometry">
                        <mxPoint x="-486" y="395" as="sourcePoint"/>
                        <mxPoint x="-486" y="415" as="targetPoint"/>
                    </mxGeometry>
                </mxCell>
                <mxCell id="EbwfNPkTryeAlgiO7ufV-28" value="(1,1)" style="endArrow=none;html=1;rounded=0;entryX=0.5;entryY=0;entryDx=0;entryDy=0;exitX=0.5;exitY=1;exitDx=0;exitDy=0;" edge="1" parent="1" source="EbwfNPkTryeAlgiO7ufV-7" target="EbwfNPkTryeAlgiO7ufV-14">
                    <mxGeometry relative="1" as="geometry">
                        <mxPoint x="-496.2" y="215" as="sourcePoint"/>
                        <mxPoint x="-496.2" y="235" as="targetPoint"/>
                    </mxGeometry>
                </mxCell>
                <mxCell id="EbwfNPkTryeAlgiO7ufV-29" value="codice_fiscale" style="ellipse;whiteSpace=wrap;html=1;align=left;fontStyle=0;verticalAlign=middle;horizontal=1;labelPosition=right;verticalLabelPosition=middle;labelBackgroundColor=none;fillStyle=auto;fillColor=#050505;" vertex="1" parent="1">
                    <mxGeometry x="-426" y="200" width="10" height="10" as="geometry"/>
                </mxCell>
                <mxCell id="EbwfNPkTryeAlgiO7ufV-30" value="id_equipaggio" style="ellipse;whiteSpace=wrap;html=1;align=right;fontStyle=0;verticalAlign=middle;horizontal=1;labelPosition=left;verticalLabelPosition=middle;labelBackgroundColor=none;fillStyle=auto;fillColor=#050505;" vertex="1" parent="1">
                    <mxGeometry x="-576" y="355" width="10" height="10" as="geometry"/>
                </mxCell>
                <mxCell id="EbwfNPkTryeAlgiO7ufV-31" value="codice_fiscale" style="ellipse;whiteSpace=wrap;html=1;align=left;fontStyle=0;verticalAlign=middle;horizontal=1;labelPosition=right;verticalLabelPosition=middle;labelBackgroundColor=none;fillStyle=auto;fillColor=#050505;" vertex="1" parent="1">
                    <mxGeometry x="-146" y="345" width="10" height="10" as="geometry"/>
                </mxCell>
                <mxCell id="EbwfNPkTryeAlgiO7ufV-34" style="edgeStyle=orthogonalEdgeStyle;shape=connector;rounded=0;orthogonalLoop=1;jettySize=auto;html=1;entryX=0;entryY=0.25;entryDx=0;entryDy=0;labelBackgroundColor=default;strokeColor=default;align=center;verticalAlign=middle;fontFamily=Helvetica;fontSize=11;fontColor=default;endArrow=none;endFill=0;" edge="1" parent="1" source="EbwfNPkTryeAlgiO7ufV-35" target="EbwfNPkTryeAlgiO7ufV-13">
                    <mxGeometry relative="1" as="geometry"/>
                </mxCell>
                <mxCell id="EbwfNPkTryeAlgiO7ufV-35" value="destinazione" style="ellipse;whiteSpace=wrap;html=1;align=right;fontFamily=Helvetica;fontSize=11;fontColor=default;labelPosition=left;verticalLabelPosition=middle;verticalAlign=middle;" vertex="1" parent="1">
                    <mxGeometry x="-576" y="490" width="10" height="10" as="geometry"/>
                </mxCell>
                <mxCell id="EbwfNPkTryeAlgiO7ufV-36" style="edgeStyle=orthogonalEdgeStyle;shape=connector;rounded=0;orthogonalLoop=1;jettySize=auto;html=1;entryX=1;entryY=0.25;entryDx=0;entryDy=0;labelBackgroundColor=default;strokeColor=default;align=center;verticalAlign=middle;fontFamily=Helvetica;fontSize=11;fontColor=default;endArrow=none;endFill=0;" edge="1" parent="1" source="EbwfNPkTryeAlgiO7ufV-37" target="EbwfNPkTryeAlgiO7ufV-13">
                    <mxGeometry relative="1" as="geometry"/>
                </mxCell>
                <mxCell id="EbwfNPkTryeAlgiO7ufV-37" value="gate" style="ellipse;whiteSpace=wrap;html=1;align=left;fontFamily=Helvetica;fontSize=11;fontColor=default;labelPosition=right;verticalLabelPosition=middle;verticalAlign=middle;" vertex="1" parent="1">
                    <mxGeometry x="-416" y="490" width="10" height="10" as="geometry"/>
                </mxCell>
                <mxCell id="EbwfNPkTryeAlgiO7ufV-38" style="edgeStyle=orthogonalEdgeStyle;shape=connector;rounded=0;orthogonalLoop=1;jettySize=auto;html=1;entryX=1;entryY=0.75;entryDx=0;entryDy=0;labelBackgroundColor=default;strokeColor=default;align=center;verticalAlign=middle;fontFamily=Helvetica;fontSize=11;fontColor=default;endArrow=none;endFill=0;" edge="1" parent="1" source="EbwfNPkTryeAlgiO7ufV-39" target="EbwfNPkTryeAlgiO7ufV-13">
                    <mxGeometry relative="1" as="geometry">
                        <Array as="points">
                            <mxPoint x="-426" y="515"/>
                            <mxPoint x="-426" y="515"/>
                        </Array>
                    </mxGeometry>
                </mxCell>
                <mxCell id="EbwfNPkTryeAlgiO7ufV-39" value="ora" style="ellipse;whiteSpace=wrap;html=1;align=left;fontFamily=Helvetica;fontSize=11;fontColor=default;labelPosition=right;verticalLabelPosition=middle;verticalAlign=middle;" vertex="1" parent="1">
                    <mxGeometry x="-416" y="510" width="10" height="10" as="geometry"/>
                </mxCell>
                <mxCell id="EbwfNPkTryeAlgiO7ufV-40" style="edgeStyle=orthogonalEdgeStyle;shape=connector;rounded=0;orthogonalLoop=1;jettySize=auto;html=1;entryX=0;entryY=0.75;entryDx=0;entryDy=0;labelBackgroundColor=default;strokeColor=default;align=center;verticalAlign=middle;fontFamily=Helvetica;fontSize=11;fontColor=default;endArrow=none;endFill=0;" edge="1" parent="1" source="EbwfNPkTryeAlgiO7ufV-41" target="EbwfNPkTryeAlgiO7ufV-13">
                    <mxGeometry relative="1" as="geometry"/>
                </mxCell>
                <mxCell id="EbwfNPkTryeAlgiO7ufV-41" value="capacità_passeggeri" style="ellipse;whiteSpace=wrap;html=1;align=right;dashed=1;fontFamily=Helvetica;fontSize=11;fontColor=default;labelPosition=left;verticalLabelPosition=middle;verticalAlign=middle;" vertex="1" parent="1">
                    <mxGeometry x="-576" y="510" width="10" height="10" as="geometry"/>
                </mxCell>
                <mxCell id="EbwfNPkTryeAlgiO7ufV-58" style="edgeStyle=orthogonalEdgeStyle;shape=connector;rounded=0;orthogonalLoop=1;jettySize=auto;html=1;labelBackgroundColor=default;strokeColor=default;align=center;verticalAlign=middle;fontFamily=Helvetica;fontSize=11;fontColor=default;endArrow=none;endFill=0;" edge="1" parent="1" source="EbwfNPkTryeAlgiO7ufV-59">
                    <mxGeometry relative="1" as="geometry">
                        <mxPoint x="-431" y="520" as="targetPoint"/>
                    </mxGeometry>
                </mxCell>
                <mxCell id="EbwfNPkTryeAlgiO7ufV-59" value="" style="ellipse;whiteSpace=wrap;html=1;align=center;fontFamily=Helvetica;fontSize=11;fontColor=default;fillColor=#050505;" vertex="1" parent="1">
                    <mxGeometry x="-436" y="470" width="10" height="10" as="geometry"/>
                </mxCell>
                <mxCell id="EbwfNPkTryeAlgiO7ufV-62" value="età" style="ellipse;whiteSpace=wrap;html=1;align=left;fontStyle=0;verticalAlign=middle;horizontal=1;labelPosition=right;verticalLabelPosition=middle;labelBackgroundColor=none;fillStyle=auto;fillColor=#FFFFFF;dashed=1;" vertex="1" parent="1">
                    <mxGeometry x="-146" y="365" width="10" height="10" as="geometry"/>
                </mxCell>
                <mxCell id="EbwfNPkTryeAlgiO7ufV-63" style="edgeStyle=orthogonalEdgeStyle;rounded=0;orthogonalLoop=1;jettySize=auto;html=1;exitX=1;exitY=0.25;exitDx=0;exitDy=0;entryX=0;entryY=0.5;entryDx=0;entryDy=0;endArrow=none;endFill=0;" edge="1" parent="1" source="EbwfNPkTryeAlgiO7ufV-10" target="EbwfNPkTryeAlgiO7ufV-31">
                    <mxGeometry relative="1" as="geometry"/>
                </mxCell>
                <mxCell id="EbwfNPkTryeAlgiO7ufV-64" style="edgeStyle=orthogonalEdgeStyle;rounded=0;orthogonalLoop=1;jettySize=auto;html=1;exitX=1;exitY=0.75;exitDx=0;exitDy=0;entryX=0;entryY=0.5;entryDx=0;entryDy=0;endArrow=none;endFill=0;" edge="1" parent="1" source="EbwfNPkTryeAlgiO7ufV-10" target="EbwfNPkTryeAlgiO7ufV-62">
                    <mxGeometry relative="1" as="geometry"/>
                </mxCell>
            </root>
        </mxGraphModel>
    </diagram>
    <diagram name="SchemaER_finale" id="0pPkHctfTOwJFwFsuPPr">
        <mxGraphModel dx="1658" dy="1038" grid="1" gridSize="10" guides="1" tooltips="1" connect="1" arrows="1" fold="1" page="1" pageScale="1" pageWidth="827" pageHeight="1169" math="0" shadow="0">
            <root>
                <mxCell id="0"/>
                <mxCell id="1" parent="0"/>
                <mxCell id="M8RDkimP0LEyit1O-IbQ-5" style="edgeStyle=orthogonalEdgeStyle;rounded=0;orthogonalLoop=1;jettySize=auto;html=1;entryX=0.5;entryY=0;entryDx=0;entryDy=0;" parent="1" source="YR3IGx6ncRQYAdFYOEWZ-1" target="YR3IGx6ncRQYAdFYOEWZ-3" edge="1">
                    <mxGeometry relative="1" as="geometry">
                        <mxPoint x="275" y="150.0000000000001" as="targetPoint"/>
                    </mxGeometry>
                </mxCell>
                <mxCell id="YR3IGx6ncRQYAdFYOEWZ-1" value="HOSTESS" style="whiteSpace=wrap;html=1;align=center;" parent="1" vertex="1">
                    <mxGeometry x="225" y="150" width="100" height="40" as="geometry"/>
                </mxCell>
                <mxCell id="M8RDkimP0LEyit1O-IbQ-6" style="edgeStyle=orthogonalEdgeStyle;rounded=0;orthogonalLoop=1;jettySize=auto;html=1;entryX=0.5;entryY=0;entryDx=0;entryDy=0;" parent="1" source="YR3IGx6ncRQYAdFYOEWZ-2" target="YR3IGx6ncRQYAdFYOEWZ-3" edge="1">
                    <mxGeometry relative="1" as="geometry">
                        <mxPoint x="410" y="150.0000000000001" as="targetPoint"/>
                    </mxGeometry>
                </mxCell>
                <mxCell id="X-rQMbt0zAnEZ4ICbaCi-1" value="DISGIUNTO" style="edgeLabel;html=1;align=center;verticalAlign=middle;resizable=0;points=[];fontSize=11;fontFamily=Helvetica;fontColor=default;" parent="M8RDkimP0LEyit1O-IbQ-6" connectable="0" vertex="1">
                    <mxGeometry x="0.0813" y="-2" relative="1" as="geometry">
                        <mxPoint x="7" as="offset"/>
                    </mxGeometry>
                </mxCell>
                <mxCell id="YR3IGx6ncRQYAdFYOEWZ-2" value="STEWARD" style="whiteSpace=wrap;html=1;align=center;" parent="1" vertex="1">
                    <mxGeometry x="355" y="150" width="100" height="40" as="geometry"/>
                </mxCell>
                <mxCell id="YR3IGx6ncRQYAdFYOEWZ-34" style="edgeStyle=orthogonalEdgeStyle;rounded=0;orthogonalLoop=1;jettySize=auto;html=1;exitX=1;exitY=0.5;exitDx=0;exitDy=0;entryX=0;entryY=0.5;entryDx=0;entryDy=0;endArrow=none;endFill=0;" parent="1" source="YR3IGx6ncRQYAdFYOEWZ-3" target="YR3IGx6ncRQYAdFYOEWZ-33" edge="1">
                    <mxGeometry relative="1" as="geometry"/>
                </mxCell>
                <mxCell id="YR3IGx6ncRQYAdFYOEWZ-3" value="ASSISTENTE" style="whiteSpace=wrap;html=1;align=center;" parent="1" vertex="1">
                    <mxGeometry x="290" y="255" width="100" height="40" as="geometry"/>
                </mxCell>
                <mxCell id="YR3IGx6ncRQYAdFYOEWZ-40" style="edgeStyle=orthogonalEdgeStyle;rounded=0;orthogonalLoop=1;jettySize=auto;html=1;entryX=1;entryY=0.5;entryDx=0;entryDy=0;endArrow=none;endFill=0;" parent="1" source="YR3IGx6ncRQYAdFYOEWZ-4" target="YR3IGx6ncRQYAdFYOEWZ-35" edge="1">
                    <mxGeometry relative="1" as="geometry"/>
                </mxCell>
                <mxCell id="YR3IGx6ncRQYAdFYOEWZ-4" value="EQUIPAGGIO" style="whiteSpace=wrap;html=1;align=center;" parent="1" vertex="1">
                    <mxGeometry x="290" y="410" width="100" height="40" as="geometry"/>
                </mxCell>
                <mxCell id="YR3IGx6ncRQYAdFYOEWZ-5" value="PILOTA" style="whiteSpace=wrap;html=1;align=center;" parent="1" vertex="1">
                    <mxGeometry x="570" y="410" width="100" height="40" as="geometry"/>
                </mxCell>
                <mxCell id="YR3IGx6ncRQYAdFYOEWZ-6" value="MODELLO" style="whiteSpace=wrap;html=1;align=center;" parent="1" vertex="1">
                    <mxGeometry x="290" y="855" width="100" height="40" as="geometry"/>
                </mxCell>
                <mxCell id="YR3IGx6ncRQYAdFYOEWZ-7" value="AEROMOBILE" style="whiteSpace=wrap;html=1;align=center;" parent="1" vertex="1">
                    <mxGeometry x="290" y="705" width="100" height="40" as="geometry"/>
                </mxCell>
                <mxCell id="YR3IGx6ncRQYAdFYOEWZ-8" value="VOLO" style="whiteSpace=wrap;html=1;align=center;" parent="1" vertex="1">
                    <mxGeometry x="290" y="555" width="100" height="40" as="geometry"/>
                </mxCell>
                <mxCell id="YR3IGx6ncRQYAdFYOEWZ-9" value="Compone" style="shape=rhombus;perimeter=rhombusPerimeter;whiteSpace=wrap;html=1;align=center;" parent="1" vertex="1">
                    <mxGeometry x="290" y="325" width="100" height="50" as="geometry"/>
                </mxCell>
                <mxCell id="YR3IGx6ncRQYAdFYOEWZ-11" value="Comanda" style="shape=rhombus;perimeter=rhombusPerimeter;whiteSpace=wrap;html=1;align=center;" parent="1" vertex="1">
                    <mxGeometry x="430" y="405" width="100" height="50" as="geometry"/>
                </mxCell>
                <mxCell id="YR3IGx6ncRQYAdFYOEWZ-12" value="Imbarca" style="shape=rhombus;perimeter=rhombusPerimeter;whiteSpace=wrap;html=1;align=center;" parent="1" vertex="1">
                    <mxGeometry x="290" y="475" width="100" height="50" as="geometry"/>
                </mxCell>
                <mxCell id="YR3IGx6ncRQYAdFYOEWZ-13" value="Tratta" style="shape=rhombus;perimeter=rhombusPerimeter;whiteSpace=wrap;html=1;align=center;" parent="1" vertex="1">
                    <mxGeometry x="290" y="625" width="100" height="50" as="geometry"/>
                </mxCell>
                <mxCell id="YR3IGx6ncRQYAdFYOEWZ-14" value="Di" style="shape=rhombus;perimeter=rhombusPerimeter;whiteSpace=wrap;html=1;align=center;" parent="1" vertex="1">
                    <mxGeometry x="290" y="775" width="100" height="50" as="geometry"/>
                </mxCell>
                <mxCell id="YR3IGx6ncRQYAdFYOEWZ-18" value="(1,1)" style="endArrow=none;html=1;rounded=0;exitX=0.5;exitY=1;exitDx=0;exitDy=0;entryX=0.5;entryY=0;entryDx=0;entryDy=0;" parent="1" source="YR3IGx6ncRQYAdFYOEWZ-8" target="YR3IGx6ncRQYAdFYOEWZ-13" edge="1">
                    <mxGeometry relative="1" as="geometry">
                        <mxPoint x="250" y="625" as="sourcePoint"/>
                        <mxPoint x="410" y="625" as="targetPoint"/>
                    </mxGeometry>
                </mxCell>
                <mxCell id="YR3IGx6ncRQYAdFYOEWZ-20" value="(1,1)" style="endArrow=none;html=1;rounded=0;exitX=0.5;exitY=1;exitDx=0;exitDy=0;entryX=0.5;entryY=0;entryDx=0;entryDy=0;" parent="1" source="YR3IGx6ncRQYAdFYOEWZ-13" target="YR3IGx6ncRQYAdFYOEWZ-7" edge="1">
                    <mxGeometry relative="1" as="geometry">
                        <mxPoint x="250" y="645" as="sourcePoint"/>
                        <mxPoint x="410" y="645" as="targetPoint"/>
                    </mxGeometry>
                </mxCell>
                <mxCell id="YR3IGx6ncRQYAdFYOEWZ-21" value="(1,1)" style="endArrow=none;html=1;rounded=0;exitX=0.5;exitY=1;exitDx=0;exitDy=0;entryX=0.5;entryY=0;entryDx=0;entryDy=0;" parent="1" source="YR3IGx6ncRQYAdFYOEWZ-7" target="YR3IGx6ncRQYAdFYOEWZ-14" edge="1">
                    <mxGeometry relative="1" as="geometry">
                        <mxPoint x="210" y="725" as="sourcePoint"/>
                        <mxPoint x="370" y="725" as="targetPoint"/>
                    </mxGeometry>
                </mxCell>
                <mxCell id="YR3IGx6ncRQYAdFYOEWZ-22" value="(1,N)" style="endArrow=none;html=1;rounded=0;entryX=0.5;entryY=1;entryDx=0;entryDy=0;exitX=0.5;exitY=0;exitDx=0;exitDy=0;" parent="1" source="YR3IGx6ncRQYAdFYOEWZ-6" target="YR3IGx6ncRQYAdFYOEWZ-14" edge="1">
                    <mxGeometry relative="1" as="geometry">
                        <mxPoint x="220" y="735" as="sourcePoint"/>
                        <mxPoint x="380" y="735" as="targetPoint"/>
                    </mxGeometry>
                </mxCell>
                <mxCell id="YR3IGx6ncRQYAdFYOEWZ-23" value="(1,1)" style="endArrow=none;html=1;rounded=0;entryX=0.5;entryY=0;entryDx=0;entryDy=0;exitX=0.5;exitY=1;exitDx=0;exitDy=0;" parent="1" source="YR3IGx6ncRQYAdFYOEWZ-12" target="YR3IGx6ncRQYAdFYOEWZ-8" edge="1">
                    <mxGeometry relative="1" as="geometry">
                        <mxPoint x="340" y="525" as="sourcePoint"/>
                        <mxPoint x="500" y="525" as="targetPoint"/>
                    </mxGeometry>
                </mxCell>
                <mxCell id="YR3IGx6ncRQYAdFYOEWZ-24" value="(1,1)" style="endArrow=none;html=1;rounded=0;entryX=0.5;entryY=0;entryDx=0;entryDy=0;exitX=0.5;exitY=1;exitDx=0;exitDy=0;" parent="1" source="YR3IGx6ncRQYAdFYOEWZ-4" target="YR3IGx6ncRQYAdFYOEWZ-12" edge="1">
                    <mxGeometry relative="1" as="geometry">
                        <mxPoint x="350" y="535" as="sourcePoint"/>
                        <mxPoint x="350" y="565" as="targetPoint"/>
                    </mxGeometry>
                </mxCell>
                <mxCell id="YR3IGx6ncRQYAdFYOEWZ-25" value="&lt;span style=&quot;color: rgb(0, 0, 0); font-family: Helvetica; font-size: 11px; font-style: normal; font-variant-ligatures: normal; font-variant-caps: normal; font-weight: 400; letter-spacing: normal; orphans: 2; text-align: center; text-indent: 0px; text-transform: none; widows: 2; word-spacing: 0px; -webkit-text-stroke-width: 0px; background-color: rgb(255, 255, 255); text-decoration-thickness: initial; text-decoration-style: initial; text-decoration-color: initial; float: none; display: inline !important;&quot;&gt;(2,2)&lt;/span&gt;" style="endArrow=none;html=1;rounded=0;entryX=0;entryY=0.5;entryDx=0;entryDy=0;exitX=1;exitY=0.5;exitDx=0;exitDy=0;" parent="1" source="YR3IGx6ncRQYAdFYOEWZ-4" target="YR3IGx6ncRQYAdFYOEWZ-11" edge="1">
                    <mxGeometry relative="1" as="geometry">
                        <mxPoint x="350" y="460" as="sourcePoint"/>
                        <mxPoint x="350" y="480" as="targetPoint"/>
                    </mxGeometry>
                </mxCell>
                <mxCell id="YR3IGx6ncRQYAdFYOEWZ-26" value="&lt;span style=&quot;color: rgb(0, 0, 0); font-family: Helvetica; font-size: 11px; font-style: normal; font-variant-ligatures: normal; font-variant-caps: normal; font-weight: 400; letter-spacing: normal; orphans: 2; text-align: center; text-indent: 0px; text-transform: none; widows: 2; word-spacing: 0px; -webkit-text-stroke-width: 0px; background-color: rgb(255, 255, 255); text-decoration-thickness: initial; text-decoration-style: initial; text-decoration-color: initial; float: none; display: inline !important;&quot;&gt;(1,1)&lt;/span&gt;" style="endArrow=none;html=1;rounded=0;entryX=1;entryY=0.5;entryDx=0;entryDy=0;exitX=0;exitY=0.5;exitDx=0;exitDy=0;" parent="1" source="YR3IGx6ncRQYAdFYOEWZ-5" target="YR3IGx6ncRQYAdFYOEWZ-11" edge="1">
                    <mxGeometry relative="1" as="geometry">
                        <mxPoint x="400" y="440" as="sourcePoint"/>
                        <mxPoint x="450" y="435" as="targetPoint"/>
                    </mxGeometry>
                </mxCell>
                <mxCell id="YR3IGx6ncRQYAdFYOEWZ-27" value="&lt;span style=&quot;color: rgb(0, 0, 0); font-family: Helvetica; font-size: 11px; font-style: normal; font-variant-ligatures: normal; font-variant-caps: normal; font-weight: 400; letter-spacing: normal; orphans: 2; text-align: center; text-indent: 0px; text-transform: none; widows: 2; word-spacing: 0px; -webkit-text-stroke-width: 0px; background-color: rgb(255, 255, 255); text-decoration-thickness: initial; text-decoration-style: initial; text-decoration-color: initial; float: none; display: inline !important;&quot;&gt;(1,N)&lt;/span&gt;" style="endArrow=none;html=1;rounded=0;entryX=0.5;entryY=0;entryDx=0;entryDy=0;exitX=0.5;exitY=1;exitDx=0;exitDy=0;" parent="1" source="YR3IGx6ncRQYAdFYOEWZ-9" target="YR3IGx6ncRQYAdFYOEWZ-4" edge="1">
                    <mxGeometry relative="1" as="geometry">
                        <mxPoint x="350" y="465" as="sourcePoint"/>
                        <mxPoint x="350" y="485" as="targetPoint"/>
                    </mxGeometry>
                </mxCell>
                <mxCell id="YR3IGx6ncRQYAdFYOEWZ-28" value="(1,1)" style="endArrow=none;html=1;rounded=0;entryX=0.5;entryY=0;entryDx=0;entryDy=0;exitX=0.5;exitY=1;exitDx=0;exitDy=0;" parent="1" source="YR3IGx6ncRQYAdFYOEWZ-3" target="YR3IGx6ncRQYAdFYOEWZ-9" edge="1">
                    <mxGeometry relative="1" as="geometry">
                        <mxPoint x="339.8" y="285" as="sourcePoint"/>
                        <mxPoint x="339.8" y="305" as="targetPoint"/>
                    </mxGeometry>
                </mxCell>
                <mxCell id="YR3IGx6ncRQYAdFYOEWZ-33" value="codice_fiscale" style="ellipse;whiteSpace=wrap;html=1;align=left;fontStyle=0;verticalAlign=middle;horizontal=1;labelPosition=right;verticalLabelPosition=middle;labelBackgroundColor=none;fillStyle=auto;fillColor=#050505;" parent="1" vertex="1">
                    <mxGeometry x="410" y="270" width="10" height="10" as="geometry"/>
                </mxCell>
                <mxCell id="YR3IGx6ncRQYAdFYOEWZ-35" value="id_equipaggio" style="ellipse;whiteSpace=wrap;html=1;align=right;fontStyle=0;verticalAlign=middle;horizontal=1;labelPosition=left;verticalLabelPosition=middle;labelBackgroundColor=none;fillStyle=auto;fillColor=#050505;" parent="1" vertex="1">
                    <mxGeometry x="260" y="425" width="10" height="10" as="geometry"/>
                </mxCell>
                <mxCell id="YR3IGx6ncRQYAdFYOEWZ-36" value="codice_fiscale" style="ellipse;whiteSpace=wrap;html=1;align=left;fontStyle=0;verticalAlign=middle;horizontal=1;labelPosition=right;verticalLabelPosition=middle;labelBackgroundColor=none;fillStyle=auto;fillColor=#050505;" parent="1" vertex="1">
                    <mxGeometry x="690" y="415" width="10" height="10" as="geometry"/>
                </mxCell>
                <mxCell id="YR3IGx6ncRQYAdFYOEWZ-37" value="id_aereo" style="ellipse;whiteSpace=wrap;html=1;align=left;fontStyle=0;verticalAlign=middle;horizontal=1;labelPosition=right;verticalLabelPosition=middle;labelBackgroundColor=none;fillStyle=auto;fillColor=#050505;" parent="1" vertex="1">
                    <mxGeometry x="410" y="720" width="10" height="10" as="geometry"/>
                </mxCell>
                <mxCell id="YR3IGx6ncRQYAdFYOEWZ-38" style="edgeStyle=orthogonalEdgeStyle;rounded=0;orthogonalLoop=1;jettySize=auto;html=1;entryX=0;entryY=0.5;entryDx=0;entryDy=0;endArrow=none;endFill=0;" parent="1" source="YR3IGx6ncRQYAdFYOEWZ-7" target="YR3IGx6ncRQYAdFYOEWZ-37" edge="1">
                    <mxGeometry relative="1" as="geometry"/>
                </mxCell>
                <mxCell id="YR3IGx6ncRQYAdFYOEWZ-61" style="edgeStyle=orthogonalEdgeStyle;shape=connector;rounded=0;orthogonalLoop=1;jettySize=auto;html=1;entryX=0;entryY=0.25;entryDx=0;entryDy=0;labelBackgroundColor=default;strokeColor=default;align=center;verticalAlign=middle;fontFamily=Helvetica;fontSize=11;fontColor=default;endArrow=none;endFill=0;" parent="1" source="YR3IGx6ncRQYAdFYOEWZ-43" target="YR3IGx6ncRQYAdFYOEWZ-8" edge="1">
                    <mxGeometry relative="1" as="geometry"/>
                </mxCell>
                <mxCell id="YR3IGx6ncRQYAdFYOEWZ-43" value="destinazione" style="ellipse;whiteSpace=wrap;html=1;align=right;fontFamily=Helvetica;fontSize=11;fontColor=default;labelPosition=left;verticalLabelPosition=middle;verticalAlign=middle;" parent="1" vertex="1">
                    <mxGeometry x="260" y="560" width="10" height="10" as="geometry"/>
                </mxCell>
                <mxCell id="YR3IGx6ncRQYAdFYOEWZ-58" style="edgeStyle=orthogonalEdgeStyle;shape=connector;rounded=0;orthogonalLoop=1;jettySize=auto;html=1;entryX=1;entryY=0.25;entryDx=0;entryDy=0;labelBackgroundColor=default;strokeColor=default;align=center;verticalAlign=middle;fontFamily=Helvetica;fontSize=11;fontColor=default;endArrow=none;endFill=0;" parent="1" source="YR3IGx6ncRQYAdFYOEWZ-47" target="YR3IGx6ncRQYAdFYOEWZ-8" edge="1">
                    <mxGeometry relative="1" as="geometry"/>
                </mxCell>
                <mxCell id="YR3IGx6ncRQYAdFYOEWZ-47" value="gate" style="ellipse;whiteSpace=wrap;html=1;align=left;fontFamily=Helvetica;fontSize=11;fontColor=default;labelPosition=right;verticalLabelPosition=middle;verticalAlign=middle;" parent="1" vertex="1">
                    <mxGeometry x="420" y="560" width="10" height="10" as="geometry"/>
                </mxCell>
                <mxCell id="YR3IGx6ncRQYAdFYOEWZ-57" style="edgeStyle=orthogonalEdgeStyle;shape=connector;rounded=0;orthogonalLoop=1;jettySize=auto;html=1;entryX=1;entryY=0.75;entryDx=0;entryDy=0;labelBackgroundColor=default;strokeColor=default;align=center;verticalAlign=middle;fontFamily=Helvetica;fontSize=11;fontColor=default;endArrow=none;endFill=0;" parent="1" source="YR3IGx6ncRQYAdFYOEWZ-49" target="YR3IGx6ncRQYAdFYOEWZ-8" edge="1">
                    <mxGeometry relative="1" as="geometry">
                        <Array as="points">
                            <mxPoint x="410" y="585"/>
                            <mxPoint x="410" y="585"/>
                        </Array>
                    </mxGeometry>
                </mxCell>
                <mxCell id="YR3IGx6ncRQYAdFYOEWZ-49" value="ora" style="ellipse;whiteSpace=wrap;html=1;align=left;fontFamily=Helvetica;fontSize=11;fontColor=default;labelPosition=right;verticalLabelPosition=middle;verticalAlign=middle;" parent="1" vertex="1">
                    <mxGeometry x="420" y="580" width="10" height="10" as="geometry"/>
                </mxCell>
                <mxCell id="YR3IGx6ncRQYAdFYOEWZ-63" style="edgeStyle=orthogonalEdgeStyle;shape=connector;rounded=0;orthogonalLoop=1;jettySize=auto;html=1;entryX=0;entryY=0.75;entryDx=0;entryDy=0;labelBackgroundColor=default;strokeColor=default;align=center;verticalAlign=middle;fontFamily=Helvetica;fontSize=11;fontColor=default;endArrow=none;endFill=0;" parent="1" source="YR3IGx6ncRQYAdFYOEWZ-62" target="YR3IGx6ncRQYAdFYOEWZ-8" edge="1">
                    <mxGeometry relative="1" as="geometry"/>
                </mxCell>
                <mxCell id="YR3IGx6ncRQYAdFYOEWZ-62" value="capacità_passeggeri" style="ellipse;whiteSpace=wrap;html=1;align=right;dashed=1;fontFamily=Helvetica;fontSize=11;fontColor=default;labelPosition=left;verticalLabelPosition=middle;verticalAlign=middle;" parent="1" vertex="1">
                    <mxGeometry x="260" y="580" width="10" height="10" as="geometry"/>
                </mxCell>
                <mxCell id="YR3IGx6ncRQYAdFYOEWZ-75" style="edgeStyle=orthogonalEdgeStyle;shape=connector;rounded=0;orthogonalLoop=1;jettySize=auto;html=1;entryX=1;entryY=0.25;entryDx=0;entryDy=0;labelBackgroundColor=default;strokeColor=default;align=center;verticalAlign=middle;fontFamily=Helvetica;fontSize=11;fontColor=default;endArrow=none;endFill=0;" parent="1" source="YR3IGx6ncRQYAdFYOEWZ-64" target="YR3IGx6ncRQYAdFYOEWZ-6" edge="1">
                    <mxGeometry relative="1" as="geometry"/>
                </mxCell>
                <mxCell id="YR3IGx6ncRQYAdFYOEWZ-64" value="carico_max" style="ellipse;whiteSpace=wrap;html=1;align=left;fontFamily=Helvetica;fontSize=11;fontColor=default;labelPosition=right;verticalLabelPosition=middle;verticalAlign=middle;" parent="1" vertex="1">
                    <mxGeometry x="410" y="860" width="10" height="10" as="geometry"/>
                </mxCell>
                <mxCell id="YR3IGx6ncRQYAdFYOEWZ-76" style="edgeStyle=orthogonalEdgeStyle;shape=connector;rounded=0;orthogonalLoop=1;jettySize=auto;html=1;entryX=1;entryY=0.75;entryDx=0;entryDy=0;labelBackgroundColor=default;strokeColor=default;align=center;verticalAlign=middle;fontFamily=Helvetica;fontSize=11;fontColor=default;endArrow=none;endFill=0;" parent="1" source="YR3IGx6ncRQYAdFYOEWZ-65" target="YR3IGx6ncRQYAdFYOEWZ-6" edge="1">
                    <mxGeometry relative="1" as="geometry"/>
                </mxCell>
                <mxCell id="YR3IGx6ncRQYAdFYOEWZ-65" value="persone_max" style="ellipse;whiteSpace=wrap;html=1;align=left;fontFamily=Helvetica;fontSize=11;fontColor=default;labelPosition=right;verticalLabelPosition=middle;verticalAlign=middle;" parent="1" vertex="1">
                    <mxGeometry x="410" y="880" width="10" height="10" as="geometry"/>
                </mxCell>
                <mxCell id="YR3IGx6ncRQYAdFYOEWZ-73" style="edgeStyle=orthogonalEdgeStyle;shape=connector;rounded=0;orthogonalLoop=1;jettySize=auto;html=1;entryX=0;entryY=0.25;entryDx=0;entryDy=0;labelBackgroundColor=default;strokeColor=default;align=center;verticalAlign=middle;fontFamily=Helvetica;fontSize=11;fontColor=default;endArrow=none;endFill=0;" parent="1" source="YR3IGx6ncRQYAdFYOEWZ-66" target="YR3IGx6ncRQYAdFYOEWZ-6" edge="1">
                    <mxGeometry relative="1" as="geometry"/>
                </mxCell>
                <mxCell id="YR3IGx6ncRQYAdFYOEWZ-66" value="nome_modello" style="ellipse;whiteSpace=wrap;html=1;align=right;fontFamily=Helvetica;fontSize=11;fontColor=default;labelPosition=left;verticalLabelPosition=middle;verticalAlign=middle;" parent="1" vertex="1">
                    <mxGeometry x="254.75" y="860" width="10" height="10" as="geometry"/>
                </mxCell>
                <mxCell id="YR3IGx6ncRQYAdFYOEWZ-74" style="edgeStyle=orthogonalEdgeStyle;shape=connector;rounded=0;orthogonalLoop=1;jettySize=auto;html=1;entryX=0;entryY=0.75;entryDx=0;entryDy=0;labelBackgroundColor=default;strokeColor=default;align=center;verticalAlign=middle;fontFamily=Helvetica;fontSize=11;fontColor=default;endArrow=none;endFill=0;" parent="1" source="YR3IGx6ncRQYAdFYOEWZ-67" target="YR3IGx6ncRQYAdFYOEWZ-6" edge="1">
                    <mxGeometry relative="1" as="geometry"/>
                </mxCell>
                <mxCell id="YR3IGx6ncRQYAdFYOEWZ-67" value="azienda_costruttrice" style="ellipse;whiteSpace=wrap;html=1;align=right;fontFamily=Helvetica;fontSize=11;fontColor=default;labelPosition=left;verticalLabelPosition=middle;verticalAlign=middle;" parent="1" vertex="1">
                    <mxGeometry x="254.75" y="880" width="10" height="10" as="geometry"/>
                </mxCell>
                <mxCell id="YR3IGx6ncRQYAdFYOEWZ-79" style="edgeStyle=orthogonalEdgeStyle;shape=connector;rounded=0;orthogonalLoop=1;jettySize=auto;html=1;entryX=0.5;entryY=1;entryDx=0;entryDy=0;labelBackgroundColor=default;strokeColor=default;align=center;verticalAlign=middle;fontFamily=Helvetica;fontSize=11;fontColor=default;endArrow=none;endFill=0;" parent="1" source="YR3IGx6ncRQYAdFYOEWZ-78" target="YR3IGx6ncRQYAdFYOEWZ-6" edge="1">
                    <mxGeometry relative="1" as="geometry"/>
                </mxCell>
                <mxCell id="YR3IGx6ncRQYAdFYOEWZ-78" value="specifiche_tecniche" style="ellipse;whiteSpace=wrap;html=1;align=center;fontFamily=Helvetica;fontSize=11;fontColor=default;" parent="1" vertex="1">
                    <mxGeometry x="290" y="915" width="100" height="40" as="geometry"/>
                </mxCell>
                <mxCell id="YR3IGx6ncRQYAdFYOEWZ-90" style="shape=connector;rounded=0;orthogonalLoop=1;jettySize=auto;html=1;entryX=0;entryY=1;entryDx=0;entryDy=0;labelBackgroundColor=default;strokeColor=default;align=center;verticalAlign=middle;fontFamily=Helvetica;fontSize=11;fontColor=default;endArrow=none;endFill=0;" parent="1" source="YR3IGx6ncRQYAdFYOEWZ-80" target="YR3IGx6ncRQYAdFYOEWZ-78" edge="1">
                    <mxGeometry relative="1" as="geometry"/>
                </mxCell>
                <mxCell id="YR3IGx6ncRQYAdFYOEWZ-80" value="peso" style="ellipse;whiteSpace=wrap;html=1;align=center;fontFamily=Helvetica;fontSize=11;fontColor=default;labelPosition=center;verticalLabelPosition=bottom;verticalAlign=middle;" parent="1" vertex="1">
                    <mxGeometry x="290" y="955" width="10" height="10" as="geometry"/>
                </mxCell>
                <mxCell id="YR3IGx6ncRQYAdFYOEWZ-83" style="shape=connector;rounded=0;orthogonalLoop=1;jettySize=auto;html=1;entryX=0.5;entryY=1;entryDx=0;entryDy=0;labelBackgroundColor=default;strokeColor=default;align=center;verticalAlign=middle;fontFamily=Helvetica;fontSize=11;fontColor=default;endArrow=none;endFill=0;" parent="1" source="YR3IGx6ncRQYAdFYOEWZ-81" target="YR3IGx6ncRQYAdFYOEWZ-78" edge="1">
                    <mxGeometry relative="1" as="geometry"/>
                </mxCell>
                <mxCell id="YR3IGx6ncRQYAdFYOEWZ-81" value="lunghezza" style="ellipse;whiteSpace=wrap;html=1;align=center;fontFamily=Helvetica;fontSize=11;fontColor=default;labelPosition=center;verticalLabelPosition=bottom;verticalAlign=middle;" parent="1" vertex="1">
                    <mxGeometry x="335" y="975" width="10" height="10" as="geometry"/>
                </mxCell>
                <mxCell id="YR3IGx6ncRQYAdFYOEWZ-91" style="shape=connector;rounded=0;orthogonalLoop=1;jettySize=auto;html=1;entryX=1;entryY=1;entryDx=0;entryDy=0;labelBackgroundColor=default;strokeColor=default;align=center;verticalAlign=middle;fontFamily=Helvetica;fontSize=11;fontColor=default;endArrow=none;endFill=0;" parent="1" source="YR3IGx6ncRQYAdFYOEWZ-82" target="YR3IGx6ncRQYAdFYOEWZ-78" edge="1">
                    <mxGeometry relative="1" as="geometry"/>
                </mxCell>
                <mxCell id="YR3IGx6ncRQYAdFYOEWZ-82" value="apertura_alare" style="ellipse;whiteSpace=wrap;html=1;align=center;fontFamily=Helvetica;fontSize=11;fontColor=default;labelPosition=center;verticalLabelPosition=bottom;verticalAlign=middle;" parent="1" vertex="1">
                    <mxGeometry x="380" y="955" width="10" height="10" as="geometry"/>
                </mxCell>
                <mxCell id="YR3IGx6ncRQYAdFYOEWZ-93" style="edgeStyle=orthogonalEdgeStyle;shape=connector;rounded=0;orthogonalLoop=1;jettySize=auto;html=1;labelBackgroundColor=default;strokeColor=default;align=center;verticalAlign=middle;fontFamily=Helvetica;fontSize=11;fontColor=default;endArrow=none;endFill=0;" parent="1" source="YR3IGx6ncRQYAdFYOEWZ-92" edge="1">
                    <mxGeometry relative="1" as="geometry">
                        <mxPoint x="405" y="590" as="targetPoint"/>
                    </mxGeometry>
                </mxCell>
                <mxCell id="YR3IGx6ncRQYAdFYOEWZ-92" value="" style="ellipse;whiteSpace=wrap;html=1;align=center;fontFamily=Helvetica;fontSize=11;fontColor=default;fillColor=#050505;" parent="1" vertex="1">
                    <mxGeometry x="400" y="540" width="10" height="10" as="geometry"/>
                </mxCell>
                <mxCell id="YR3IGx6ncRQYAdFYOEWZ-96" style="edgeStyle=orthogonalEdgeStyle;shape=connector;rounded=0;orthogonalLoop=1;jettySize=auto;html=1;labelBackgroundColor=default;strokeColor=default;align=center;verticalAlign=middle;fontFamily=Helvetica;fontSize=11;fontColor=default;endArrow=none;endFill=0;" parent="1" source="YR3IGx6ncRQYAdFYOEWZ-95" edge="1">
                    <mxGeometry relative="1" as="geometry">
                        <mxPoint x="275" y="890" as="targetPoint"/>
                    </mxGeometry>
                </mxCell>
                <mxCell id="YR3IGx6ncRQYAdFYOEWZ-95" value="" style="ellipse;whiteSpace=wrap;html=1;align=center;fontFamily=Helvetica;fontSize=11;fontColor=default;fillColor=#050505;" parent="1" vertex="1">
                    <mxGeometry x="270" y="840" width="10" height="10" as="geometry"/>
                </mxCell>
                <mxCell id="WJQdYUsPwSOVXaNKN61x-1" value="età" style="ellipse;whiteSpace=wrap;html=1;align=left;fontStyle=0;verticalAlign=middle;horizontal=1;labelPosition=right;verticalLabelPosition=middle;labelBackgroundColor=none;fillStyle=auto;fillColor=#FFFFFF;dashed=1;" parent="1" vertex="1">
                    <mxGeometry x="690" y="435" width="10" height="10" as="geometry"/>
                </mxCell>
                <mxCell id="WJQdYUsPwSOVXaNKN61x-3" style="edgeStyle=orthogonalEdgeStyle;rounded=0;orthogonalLoop=1;jettySize=auto;html=1;exitX=1;exitY=0.25;exitDx=0;exitDy=0;entryX=0;entryY=0.5;entryDx=0;entryDy=0;endArrow=none;endFill=0;" parent="1" source="YR3IGx6ncRQYAdFYOEWZ-5" target="YR3IGx6ncRQYAdFYOEWZ-36" edge="1">
                    <mxGeometry relative="1" as="geometry"/>
                </mxCell>
                <mxCell id="WJQdYUsPwSOVXaNKN61x-4" style="edgeStyle=orthogonalEdgeStyle;rounded=0;orthogonalLoop=1;jettySize=auto;html=1;exitX=1;exitY=0.75;exitDx=0;exitDy=0;entryX=0;entryY=0.5;entryDx=0;entryDy=0;endArrow=none;endFill=0;" parent="1" source="YR3IGx6ncRQYAdFYOEWZ-5" target="WJQdYUsPwSOVXaNKN61x-1" edge="1">
                    <mxGeometry relative="1" as="geometry"/>
                </mxCell>
            </root>
        </mxGraphModel>
    </diagram>
    <diagram id="NV2L15p_hMeZvEWUtoHC" name="reiterazione_assistente">
        <mxGraphModel dx="746" dy="467" grid="1" gridSize="10" guides="1" tooltips="1" connect="1" arrows="1" fold="1" page="1" pageScale="1" pageWidth="827" pageHeight="1169" math="0" shadow="0">
            <root>
                <mxCell id="0"/>
                <mxCell id="1" parent="0"/>
                <mxCell id="sAw2rw65fHt69XS3MeU7-1" style="edgeStyle=orthogonalEdgeStyle;rounded=0;orthogonalLoop=1;jettySize=auto;html=1;endArrow=none;endFill=0;exitX=0.5;exitY=1;exitDx=0;exitDy=0;" parent="1" source="zNJM8Huxfl1hheJMoVSh-2" target="sAw2rw65fHt69XS3MeU7-9" edge="1">
                    <mxGeometry relative="1" as="geometry"/>
                </mxCell>
                <mxCell id="sAw2rw65fHt69XS3MeU7-18" value="(1,1)" style="edgeLabel;html=1;align=center;verticalAlign=middle;resizable=0;points=[];fontSize=11;fontFamily=Helvetica;fontColor=default;" parent="sAw2rw65fHt69XS3MeU7-1" connectable="0" vertex="1">
                    <mxGeometry x="-0.2548" relative="1" as="geometry">
                        <mxPoint as="offset"/>
                    </mxGeometry>
                </mxCell>
                <mxCell id="sAw2rw65fHt69XS3MeU7-3" style="edgeStyle=orthogonalEdgeStyle;rounded=0;orthogonalLoop=1;jettySize=auto;html=1;entryX=0.5;entryY=0;entryDx=0;entryDy=0;endArrow=none;endFill=0;" parent="1" source="sAw2rw65fHt69XS3MeU7-4" target="sAw2rw65fHt69XS3MeU7-11" edge="1">
                    <mxGeometry relative="1" as="geometry"/>
                </mxCell>
                <mxCell id="sAw2rw65fHt69XS3MeU7-17" value="(1,1)" style="edgeLabel;html=1;align=center;verticalAlign=middle;resizable=0;points=[];fontSize=11;fontFamily=Helvetica;fontColor=default;" parent="sAw2rw65fHt69XS3MeU7-3" connectable="0" vertex="1">
                    <mxGeometry x="0.0548" y="-1" relative="1" as="geometry">
                        <mxPoint as="offset"/>
                    </mxGeometry>
                </mxCell>
                <mxCell id="sAw2rw65fHt69XS3MeU7-4" value="STEWARD" style="whiteSpace=wrap;html=1;align=center;" parent="1" vertex="1">
                    <mxGeometry x="440" y="472" width="100" height="40" as="geometry"/>
                </mxCell>
                <mxCell id="sAw2rw65fHt69XS3MeU7-6" value="EQUIPAGGIO" style="whiteSpace=wrap;html=1;align=center;" parent="1" vertex="1">
                    <mxGeometry x="361" y="657" width="100" height="40" as="geometry"/>
                </mxCell>
                <mxCell id="sAw2rw65fHt69XS3MeU7-8" style="edgeStyle=orthogonalEdgeStyle;rounded=0;orthogonalLoop=1;jettySize=auto;html=1;endArrow=none;endFill=0;exitX=0.5;exitY=1;exitDx=0;exitDy=0;verticalAlign=top;entryX=0.25;entryY=0;entryDx=0;entryDy=0;" parent="1" source="sAw2rw65fHt69XS3MeU7-9" target="sAw2rw65fHt69XS3MeU7-6" edge="1">
                    <mxGeometry relative="1" as="geometry">
                        <mxPoint x="395.5" y="657" as="targetPoint"/>
                        <mxPoint x="350.5" y="607" as="sourcePoint"/>
                    </mxGeometry>
                </mxCell>
                <mxCell id="sAw2rw65fHt69XS3MeU7-21" value="(0,N)" style="edgeLabel;html=1;align=center;verticalAlign=middle;resizable=0;points=[];fontSize=11;fontFamily=Helvetica;fontColor=default;" parent="sAw2rw65fHt69XS3MeU7-8" connectable="0" vertex="1">
                    <mxGeometry x="0.0612" relative="1" as="geometry">
                        <mxPoint x="-3" as="offset"/>
                    </mxGeometry>
                </mxCell>
                <mxCell id="sAw2rw65fHt69XS3MeU7-9" value="R1" style="shape=rhombus;perimeter=rhombusPerimeter;whiteSpace=wrap;html=1;align=center;" parent="1" vertex="1">
                    <mxGeometry x="286" y="552" width="100" height="50" as="geometry"/>
                </mxCell>
                <mxCell id="sAw2rw65fHt69XS3MeU7-10" style="edgeStyle=orthogonalEdgeStyle;rounded=0;orthogonalLoop=1;jettySize=auto;html=1;endArrow=none;endFill=0;exitX=0.5;exitY=1;exitDx=0;exitDy=0;entryX=0.75;entryY=0;entryDx=0;entryDy=0;" parent="1" source="sAw2rw65fHt69XS3MeU7-11" target="sAw2rw65fHt69XS3MeU7-6" edge="1">
                    <mxGeometry relative="1" as="geometry">
                        <mxPoint x="431" y="656.9999999999999" as="targetPoint"/>
                        <mxPoint x="471" y="607" as="sourcePoint"/>
                    </mxGeometry>
                </mxCell>
                <mxCell id="sAw2rw65fHt69XS3MeU7-19" value="(0,N)" style="edgeLabel;html=1;align=center;verticalAlign=middle;resizable=0;points=[];fontSize=11;fontFamily=Helvetica;fontColor=default;" parent="sAw2rw65fHt69XS3MeU7-10" connectable="0" vertex="1">
                    <mxGeometry x="0.0309" y="-1" relative="1" as="geometry">
                        <mxPoint as="offset"/>
                    </mxGeometry>
                </mxCell>
                <mxCell id="sAw2rw65fHt69XS3MeU7-11" value="R2" style="shape=rhombus;perimeter=rhombusPerimeter;whiteSpace=wrap;html=1;align=center;" parent="1" vertex="1">
                    <mxGeometry x="440" y="552" width="100" height="50" as="geometry"/>
                </mxCell>
                <mxCell id="sAw2rw65fHt69XS3MeU7-12" style="edgeStyle=orthogonalEdgeStyle;rounded=0;orthogonalLoop=1;jettySize=auto;html=1;exitX=1;exitY=0.5;exitDx=0;exitDy=0;entryX=0;entryY=0.5;entryDx=0;entryDy=0;endArrow=none;endFill=0;" parent="1" source="sAw2rw65fHt69XS3MeU7-4" target="sAw2rw65fHt69XS3MeU7-13" edge="1">
                    <mxGeometry relative="1" as="geometry">
                        <mxPoint x="540" y="492" as="sourcePoint"/>
                    </mxGeometry>
                </mxCell>
                <mxCell id="sAw2rw65fHt69XS3MeU7-13" value="CF" style="ellipse;whiteSpace=wrap;html=1;align=left;fontStyle=0;verticalAlign=middle;horizontal=1;labelPosition=right;verticalLabelPosition=middle;labelBackgroundColor=none;fillStyle=auto;fillColor=#050505;" parent="1" vertex="1">
                    <mxGeometry x="555" y="487" width="10" height="10" as="geometry"/>
                </mxCell>
                <mxCell id="zNJM8Huxfl1hheJMoVSh-4" style="edgeStyle=orthogonalEdgeStyle;shape=connector;rounded=0;orthogonalLoop=1;jettySize=auto;html=1;entryX=0;entryY=0.5;entryDx=0;entryDy=0;labelBackgroundColor=default;strokeColor=default;align=center;verticalAlign=middle;fontFamily=Helvetica;fontSize=11;fontColor=default;endArrow=none;endFill=0;" parent="1" source="sAw2rw65fHt69XS3MeU7-14" target="zNJM8Huxfl1hheJMoVSh-2" edge="1">
                    <mxGeometry relative="1" as="geometry"/>
                </mxCell>
                <mxCell id="sAw2rw65fHt69XS3MeU7-14" value="CF" style="ellipse;whiteSpace=wrap;html=1;align=right;fontStyle=0;verticalAlign=middle;horizontal=1;labelPosition=left;verticalLabelPosition=middle;labelBackgroundColor=none;fillStyle=auto;fillColor=#050505;" parent="1" vertex="1">
                    <mxGeometry x="260" y="487" width="10" height="10" as="geometry"/>
                </mxCell>
                <mxCell id="KMAF_TUg9zWuKG7JgETa-1" style="edgeStyle=orthogonalEdgeStyle;rounded=0;orthogonalLoop=1;jettySize=auto;html=1;entryX=1;entryY=0.5;entryDx=0;entryDy=0;endArrow=none;endFill=0;exitX=0;exitY=0.5;exitDx=0;exitDy=0;" parent="1" source="sAw2rw65fHt69XS3MeU7-6" target="KMAF_TUg9zWuKG7JgETa-2" edge="1">
                    <mxGeometry relative="1" as="geometry">
                        <mxPoint x="361" y="677" as="sourcePoint"/>
                    </mxGeometry>
                </mxCell>
                <mxCell id="KMAF_TUg9zWuKG7JgETa-2" value="id_equipaggio" style="ellipse;whiteSpace=wrap;html=1;align=right;fontStyle=0;verticalAlign=middle;horizontal=1;labelPosition=left;verticalLabelPosition=middle;labelBackgroundColor=none;fillStyle=auto;fillColor=#050505;" parent="1" vertex="1">
                    <mxGeometry x="331" y="672" width="10" height="10" as="geometry"/>
                </mxCell>
                <mxCell id="zNJM8Huxfl1hheJMoVSh-2" value="HOSTESS" style="whiteSpace=wrap;html=1;align=center;" parent="1" vertex="1">
                    <mxGeometry x="286" y="472" width="100" height="40" as="geometry"/>
                </mxCell>
            </root>
        </mxGraphModel>
    </diagram>
    <diagram id="w9Odir14pp7eiqKdfGAV" name="reiterazione_modello">
        <mxGraphModel dx="746" dy="467" grid="1" gridSize="10" guides="1" tooltips="1" connect="1" arrows="1" fold="1" page="1" pageScale="1" pageWidth="827" pageHeight="1169" math="0" shadow="0">
            <root>
                <mxCell id="0"/>
                <mxCell id="1" parent="0"/>
                <mxCell id="gTHFhY-PLHy4rvShdJhG-2" style="edgeStyle=orthogonalEdgeStyle;rounded=0;orthogonalLoop=1;jettySize=auto;html=1;entryX=0.5;entryY=0;entryDx=0;entryDy=0;endArrow=none;endFill=0;" parent="1" source="nLorGildyiClcsVAJIJt-1" target="gTHFhY-PLHy4rvShdJhG-1" edge="1">
                    <mxGeometry relative="1" as="geometry"/>
                </mxCell>
                <mxCell id="gTHFhY-PLHy4rvShdJhG-4" value="(1,1)" style="edgeLabel;html=1;align=center;verticalAlign=middle;resizable=0;points=[];fontSize=11;fontFamily=Helvetica;fontColor=default;" parent="gTHFhY-PLHy4rvShdJhG-2" vertex="1" connectable="0">
                    <mxGeometry x="-0.02" relative="1" as="geometry">
                        <mxPoint as="offset"/>
                    </mxGeometry>
                </mxCell>
                <mxCell id="nLorGildyiClcsVAJIJt-1" value="MODELLO" style="whiteSpace=wrap;html=1;align=center;" parent="1" vertex="1">
                    <mxGeometry x="366.25" y="470" width="100" height="40" as="geometry"/>
                </mxCell>
                <mxCell id="nLorGildyiClcsVAJIJt-2" value="(1,N)" style="endArrow=none;html=1;rounded=0;entryX=0.5;entryY=1;entryDx=0;entryDy=0;exitX=0.5;exitY=0;exitDx=0;exitDy=0;" parent="1" source="nLorGildyiClcsVAJIJt-1" edge="1">
                    <mxGeometry relative="1" as="geometry">
                        <mxPoint x="296.25" y="350" as="sourcePoint"/>
                        <mxPoint x="416.25" y="440" as="targetPoint"/>
                    </mxGeometry>
                </mxCell>
                <mxCell id="nLorGildyiClcsVAJIJt-3" style="edgeStyle=orthogonalEdgeStyle;shape=connector;rounded=0;orthogonalLoop=1;jettySize=auto;html=1;entryX=1;entryY=0.25;entryDx=0;entryDy=0;labelBackgroundColor=default;strokeColor=default;align=center;verticalAlign=middle;fontFamily=Helvetica;fontSize=11;fontColor=default;endArrow=none;endFill=0;" parent="1" source="nLorGildyiClcsVAJIJt-4" target="nLorGildyiClcsVAJIJt-1" edge="1">
                    <mxGeometry relative="1" as="geometry"/>
                </mxCell>
                <mxCell id="nLorGildyiClcsVAJIJt-4" value="carico_max" style="ellipse;whiteSpace=wrap;html=1;align=left;fontFamily=Helvetica;fontSize=11;fontColor=default;labelPosition=right;verticalLabelPosition=middle;verticalAlign=middle;" parent="1" vertex="1">
                    <mxGeometry x="486.25" y="475" width="10" height="10" as="geometry"/>
                </mxCell>
                <mxCell id="nLorGildyiClcsVAJIJt-5" style="edgeStyle=orthogonalEdgeStyle;shape=connector;rounded=0;orthogonalLoop=1;jettySize=auto;html=1;entryX=1;entryY=0.75;entryDx=0;entryDy=0;labelBackgroundColor=default;strokeColor=default;align=center;verticalAlign=middle;fontFamily=Helvetica;fontSize=11;fontColor=default;endArrow=none;endFill=0;" parent="1" source="nLorGildyiClcsVAJIJt-6" target="nLorGildyiClcsVAJIJt-1" edge="1">
                    <mxGeometry relative="1" as="geometry"/>
                </mxCell>
                <mxCell id="nLorGildyiClcsVAJIJt-6" value="persone_max" style="ellipse;whiteSpace=wrap;html=1;align=left;fontFamily=Helvetica;fontSize=11;fontColor=default;labelPosition=right;verticalLabelPosition=middle;verticalAlign=middle;" parent="1" vertex="1">
                    <mxGeometry x="486.25" y="495" width="10" height="10" as="geometry"/>
                </mxCell>
                <mxCell id="nLorGildyiClcsVAJIJt-7" style="edgeStyle=orthogonalEdgeStyle;shape=connector;rounded=0;orthogonalLoop=1;jettySize=auto;html=1;entryX=0;entryY=0.25;entryDx=0;entryDy=0;labelBackgroundColor=default;strokeColor=default;align=center;verticalAlign=middle;fontFamily=Helvetica;fontSize=11;fontColor=default;endArrow=none;endFill=0;" parent="1" source="nLorGildyiClcsVAJIJt-8" target="nLorGildyiClcsVAJIJt-1" edge="1">
                    <mxGeometry relative="1" as="geometry"/>
                </mxCell>
                <mxCell id="nLorGildyiClcsVAJIJt-8" value="nome_modello" style="ellipse;whiteSpace=wrap;html=1;align=right;fontFamily=Helvetica;fontSize=11;fontColor=default;labelPosition=left;verticalLabelPosition=middle;verticalAlign=middle;" parent="1" vertex="1">
                    <mxGeometry x="331" y="475" width="10" height="10" as="geometry"/>
                </mxCell>
                <mxCell id="nLorGildyiClcsVAJIJt-9" style="edgeStyle=orthogonalEdgeStyle;shape=connector;rounded=0;orthogonalLoop=1;jettySize=auto;html=1;entryX=0;entryY=0.75;entryDx=0;entryDy=0;labelBackgroundColor=default;strokeColor=default;align=center;verticalAlign=middle;fontFamily=Helvetica;fontSize=11;fontColor=default;endArrow=none;endFill=0;" parent="1" source="nLorGildyiClcsVAJIJt-10" target="nLorGildyiClcsVAJIJt-1" edge="1">
                    <mxGeometry relative="1" as="geometry"/>
                </mxCell>
                <mxCell id="nLorGildyiClcsVAJIJt-10" value="azienda_costruttrice" style="ellipse;whiteSpace=wrap;html=1;align=right;fontFamily=Helvetica;fontSize=11;fontColor=default;labelPosition=left;verticalLabelPosition=middle;verticalAlign=middle;" parent="1" vertex="1">
                    <mxGeometry x="331" y="495" width="10" height="10" as="geometry"/>
                </mxCell>
                <mxCell id="nLorGildyiClcsVAJIJt-19" style="edgeStyle=orthogonalEdgeStyle;shape=connector;rounded=0;orthogonalLoop=1;jettySize=auto;html=1;labelBackgroundColor=default;strokeColor=default;align=center;verticalAlign=middle;fontFamily=Helvetica;fontSize=11;fontColor=default;endArrow=none;endFill=0;" parent="1" source="nLorGildyiClcsVAJIJt-20" edge="1">
                    <mxGeometry relative="1" as="geometry">
                        <mxPoint x="351.25" y="505" as="targetPoint"/>
                    </mxGeometry>
                </mxCell>
                <mxCell id="nLorGildyiClcsVAJIJt-20" value="" style="ellipse;whiteSpace=wrap;html=1;align=center;fontFamily=Helvetica;fontSize=11;fontColor=default;fillColor=#050505;" parent="1" vertex="1">
                    <mxGeometry x="346.25" y="455" width="10" height="10" as="geometry"/>
                </mxCell>
                <mxCell id="gTHFhY-PLHy4rvShdJhG-3" style="edgeStyle=orthogonalEdgeStyle;shape=connector;rounded=0;orthogonalLoop=1;jettySize=auto;html=1;entryX=0.5;entryY=0;entryDx=0;entryDy=0;labelBackgroundColor=default;strokeColor=default;align=center;verticalAlign=middle;fontFamily=Helvetica;fontSize=11;fontColor=default;endArrow=none;endFill=0;" parent="1" source="gTHFhY-PLHy4rvShdJhG-1" target="sxLqUxJij8KfXjApGR8M-1" edge="1">
                    <mxGeometry relative="1" as="geometry">
                        <mxPoint x="416.25" y="640" as="targetPoint"/>
                    </mxGeometry>
                </mxCell>
                <mxCell id="gTHFhY-PLHy4rvShdJhG-5" value="(1,1)" style="edgeLabel;html=1;align=center;verticalAlign=middle;resizable=0;points=[];fontSize=11;fontFamily=Helvetica;fontColor=default;" parent="gTHFhY-PLHy4rvShdJhG-3" vertex="1" connectable="0">
                    <mxGeometry x="-0.24" y="1" relative="1" as="geometry">
                        <mxPoint x="-1" y="5" as="offset"/>
                    </mxGeometry>
                </mxCell>
                <mxCell id="gTHFhY-PLHy4rvShdJhG-1" value="Con" style="shape=rhombus;perimeter=rhombusPerimeter;whiteSpace=wrap;html=1;align=center;" parent="1" vertex="1">
                    <mxGeometry x="366.25" y="550" width="100" height="50" as="geometry"/>
                </mxCell>
                <mxCell id="gTHFhY-PLHy4rvShdJhG-12" style="edgeStyle=orthogonalEdgeStyle;shape=connector;rounded=0;orthogonalLoop=1;jettySize=auto;html=1;entryX=0.5;entryY=0;entryDx=0;entryDy=0;labelBackgroundColor=default;strokeColor=default;align=center;verticalAlign=middle;fontFamily=Helvetica;fontSize=11;fontColor=default;endArrow=none;endFill=0;exitX=0.5;exitY=1;exitDx=0;exitDy=0;" parent="1" source="sxLqUxJij8KfXjApGR8M-1" target="gTHFhY-PLHy4rvShdJhG-9" edge="1">
                    <mxGeometry relative="1" as="geometry">
                        <mxPoint x="416.25" y="680" as="sourcePoint"/>
                    </mxGeometry>
                </mxCell>
                <mxCell id="gTHFhY-PLHy4rvShdJhG-16" style="edgeStyle=orthogonalEdgeStyle;shape=connector;rounded=0;orthogonalLoop=1;jettySize=auto;html=1;entryX=0.25;entryY=1;entryDx=0;entryDy=0;labelBackgroundColor=default;strokeColor=default;align=center;verticalAlign=middle;fontFamily=Helvetica;fontSize=11;fontColor=default;endArrow=none;endFill=0;" parent="1" source="gTHFhY-PLHy4rvShdJhG-7" target="sxLqUxJij8KfXjApGR8M-1" edge="1">
                    <mxGeometry relative="1" as="geometry">
                        <mxPoint x="391.25" y="680" as="targetPoint"/>
                        <Array as="points">
                            <mxPoint x="381" y="690"/>
                            <mxPoint x="391" y="690"/>
                        </Array>
                    </mxGeometry>
                </mxCell>
                <mxCell id="gTHFhY-PLHy4rvShdJhG-7" value="peso" style="ellipse;whiteSpace=wrap;html=1;align=center;fontFamily=Helvetica;fontSize=11;fontColor=default;labelPosition=center;verticalLabelPosition=bottom;verticalAlign=middle;" parent="1" vertex="1">
                    <mxGeometry x="376.25" y="700" width="10" height="10" as="geometry"/>
                </mxCell>
                <mxCell id="xzqvnsGSe6bizsSTne5Y-3" style="edgeStyle=orthogonalEdgeStyle;shape=connector;rounded=0;orthogonalLoop=1;jettySize=auto;html=1;entryX=0.75;entryY=1;entryDx=0;entryDy=0;labelBackgroundColor=default;strokeColor=default;align=center;verticalAlign=middle;fontFamily=Helvetica;fontSize=11;fontColor=default;endArrow=none;endFill=0;" parent="1" source="gTHFhY-PLHy4rvShdJhG-8" target="sxLqUxJij8KfXjApGR8M-1" edge="1">
                    <mxGeometry relative="1" as="geometry">
                        <mxPoint x="441.25" y="680" as="targetPoint"/>
                        <Array as="points">
                            <mxPoint x="455" y="690"/>
                            <mxPoint x="441" y="690"/>
                        </Array>
                    </mxGeometry>
                </mxCell>
                <mxCell id="gTHFhY-PLHy4rvShdJhG-8" value="lunghezza" style="ellipse;whiteSpace=wrap;html=1;align=center;fontFamily=Helvetica;fontSize=11;fontColor=default;labelPosition=center;verticalLabelPosition=bottom;verticalAlign=middle;" parent="1" vertex="1">
                    <mxGeometry x="450" y="700" width="10" height="10" as="geometry"/>
                </mxCell>
                <mxCell id="gTHFhY-PLHy4rvShdJhG-9" value="apertura_alare" style="ellipse;whiteSpace=wrap;html=1;align=center;fontFamily=Helvetica;fontSize=11;fontColor=default;labelPosition=center;verticalLabelPosition=bottom;verticalAlign=middle;" parent="1" vertex="1">
                    <mxGeometry x="411.25" y="720" width="10" height="10" as="geometry"/>
                </mxCell>
                <mxCell id="xzqvnsGSe6bizsSTne5Y-6" style="edgeStyle=orthogonalEdgeStyle;shape=connector;rounded=0;orthogonalLoop=1;jettySize=auto;html=1;labelBackgroundColor=default;strokeColor=default;align=center;verticalAlign=middle;fontFamily=Helvetica;fontSize=11;fontColor=default;endArrow=none;endFill=0;" parent="1" source="xzqvnsGSe6bizsSTne5Y-4" edge="1">
                    <mxGeometry relative="1" as="geometry">
                        <mxPoint x="450" y="685" as="targetPoint"/>
                    </mxGeometry>
                </mxCell>
                <mxCell id="xzqvnsGSe6bizsSTne5Y-4" value="" style="ellipse;whiteSpace=wrap;html=1;align=center;fontFamily=Helvetica;fontSize=11;fontColor=default;labelPosition=center;verticalLabelPosition=bottom;verticalAlign=middle;labelBackgroundColor=none;fillColor=#141414;" parent="1" vertex="1">
                    <mxGeometry x="346.25" y="680" width="10" height="10" as="geometry"/>
                </mxCell>
                <mxCell id="sxLqUxJij8KfXjApGR8M-1" value="SPEC. TEC." style="html=1;dashed=0;whiteSpace=wrap;" parent="1" vertex="1">
                    <mxGeometry x="366.25" y="640" width="100" height="40" as="geometry"/>
                </mxCell>
            </root>
        </mxGraphModel>
    </diagram>
    <diagram id="qpBnU3gkMzSDC8HlgkG2" name="aereo_proposta">
        <mxGraphModel dx="746" dy="467" grid="1" gridSize="10" guides="1" tooltips="1" connect="1" arrows="1" fold="1" page="1" pageScale="1" pageWidth="827" pageHeight="1169" math="0" shadow="0">
            <root>
                <mxCell id="0"/>
                <mxCell id="1" parent="0"/>
                <mxCell id="JGRSl2QnAkM5YGyXzgCr-2" value="AEROMOBILE" style="whiteSpace=wrap;html=1;align=center;" parent="1" vertex="1">
                    <mxGeometry x="369" y="460" width="100" height="40" as="geometry"/>
                </mxCell>
                <mxCell id="JGRSl2QnAkM5YGyXzgCr-3" value="Di" style="shape=rhombus;perimeter=rhombusPerimeter;whiteSpace=wrap;html=1;align=center;" parent="1" vertex="1">
                    <mxGeometry x="369" y="580" width="100" height="50" as="geometry"/>
                </mxCell>
                <mxCell id="JGRSl2QnAkM5YGyXzgCr-4" value="(1,1)" style="endArrow=none;html=1;rounded=0;exitX=0.5;exitY=1;exitDx=0;exitDy=0;entryX=0.5;entryY=0;entryDx=0;entryDy=0;" parent="1" target="JGRSl2QnAkM5YGyXzgCr-2" edge="1">
                    <mxGeometry relative="1" as="geometry">
                        <mxPoint x="419" y="430" as="sourcePoint"/>
                        <mxPoint x="489" y="400" as="targetPoint"/>
                    </mxGeometry>
                </mxCell>
                <mxCell id="JGRSl2QnAkM5YGyXzgCr-5" value="(1,1)" style="endArrow=none;html=1;rounded=0;exitX=0.5;exitY=1;exitDx=0;exitDy=0;entryX=0.5;entryY=0;entryDx=0;entryDy=0;" parent="1" source="JGRSl2QnAkM5YGyXzgCr-2" target="JGRSl2QnAkM5YGyXzgCr-3" edge="1">
                    <mxGeometry relative="1" as="geometry">
                        <mxPoint x="289" y="530" as="sourcePoint"/>
                        <mxPoint x="449" y="530" as="targetPoint"/>
                    </mxGeometry>
                </mxCell>
                <mxCell id="JGRSl2QnAkM5YGyXzgCr-6" value="(1,N)" style="endArrow=none;html=1;rounded=0;entryX=0.5;entryY=1;entryDx=0;entryDy=0;exitX=0.5;exitY=0;exitDx=0;exitDy=0;" parent="1" source="oS8uskOPYeTFuWlc-3pK-28" target="JGRSl2QnAkM5YGyXzgCr-3" edge="1">
                    <mxGeometry relative="1" as="geometry">
                        <mxPoint x="419" y="660" as="sourcePoint"/>
                        <mxPoint x="459" y="540" as="targetPoint"/>
                    </mxGeometry>
                </mxCell>
                <mxCell id="JGRSl2QnAkM5YGyXzgCr-7" value="id_aereo" style="ellipse;whiteSpace=wrap;html=1;align=left;fontStyle=0;verticalAlign=middle;horizontal=1;labelPosition=right;verticalLabelPosition=middle;labelBackgroundColor=none;fillStyle=auto;fillColor=#050505;" parent="1" vertex="1">
                    <mxGeometry x="489" y="475" width="10" height="10" as="geometry"/>
                </mxCell>
                <mxCell id="JGRSl2QnAkM5YGyXzgCr-8" style="edgeStyle=orthogonalEdgeStyle;rounded=0;orthogonalLoop=1;jettySize=auto;html=1;entryX=0;entryY=0.5;entryDx=0;entryDy=0;endArrow=none;endFill=0;" parent="1" source="JGRSl2QnAkM5YGyXzgCr-2" target="JGRSl2QnAkM5YGyXzgCr-7" edge="1">
                    <mxGeometry relative="1" as="geometry"/>
                </mxCell>
                <mxCell id="oS8uskOPYeTFuWlc-3pK-1" value="" style="endArrow=none;dashed=1;html=1;dashPattern=1 3;strokeWidth=2;rounded=0;" parent="1" edge="1">
                    <mxGeometry width="50" height="50" relative="1" as="geometry">
                        <mxPoint x="419.12" y="420" as="sourcePoint"/>
                        <mxPoint x="418.87" y="400" as="targetPoint"/>
                    </mxGeometry>
                </mxCell>
                <mxCell id="oS8uskOPYeTFuWlc-3pK-4" value="(1,1)" style="rounded=0;orthogonalLoop=1;jettySize=auto;html=1;entryX=0.75;entryY=1;entryDx=0;entryDy=0;endArrow=none;endFill=0;" parent="1" source="oS8uskOPYeTFuWlc-3pK-2" target="JGRSl2QnAkM5YGyXzgCr-2" edge="1">
                    <mxGeometry relative="1" as="geometry"/>
                </mxCell>
                <mxCell id="oS8uskOPYeTFuWlc-3pK-2" value="Costruito" style="shape=rhombus;perimeter=rhombusPerimeter;whiteSpace=wrap;html=1;align=center;" parent="1" vertex="1">
                    <mxGeometry x="499" y="580" width="100" height="50" as="geometry"/>
                </mxCell>
                <mxCell id="oS8uskOPYeTFuWlc-3pK-5" value="(1,1)" style="rounded=0;orthogonalLoop=1;jettySize=auto;html=1;entryX=0.25;entryY=1;entryDx=0;entryDy=0;endArrow=none;endFill=0;" parent="1" source="oS8uskOPYeTFuWlc-3pK-3" target="JGRSl2QnAkM5YGyXzgCr-2" edge="1">
                    <mxGeometry relative="1" as="geometry"/>
                </mxCell>
                <mxCell id="oS8uskOPYeTFuWlc-3pK-3" value="Trasporta" style="shape=rhombus;perimeter=rhombusPerimeter;whiteSpace=wrap;html=1;align=center;" parent="1" vertex="1">
                    <mxGeometry x="238" y="580" width="100" height="50" as="geometry"/>
                </mxCell>
                <mxCell id="oS8uskOPYeTFuWlc-3pK-25" value="CARICO" style="whiteSpace=wrap;html=1;align=center;" parent="1" vertex="1">
                    <mxGeometry x="238" y="675" width="100" height="40" as="geometry"/>
                </mxCell>
                <mxCell id="oS8uskOPYeTFuWlc-3pK-26" value="(1,N)" style="endArrow=none;html=1;rounded=0;entryX=0.5;entryY=1;entryDx=0;entryDy=0;exitX=0.5;exitY=0;exitDx=0;exitDy=0;" parent="1" source="oS8uskOPYeTFuWlc-3pK-25" target="oS8uskOPYeTFuWlc-3pK-3" edge="1">
                    <mxGeometry relative="1" as="geometry">
                        <mxPoint x="299.01" y="660" as="sourcePoint"/>
                        <mxPoint x="298.76" y="630" as="targetPoint"/>
                    </mxGeometry>
                </mxCell>
                <mxCell id="oS8uskOPYeTFuWlc-3pK-27" value="(1,N)" style="endArrow=none;html=1;rounded=0;entryX=0.5;entryY=1;entryDx=0;entryDy=0;exitX=0.5;exitY=0;exitDx=0;exitDy=0;" parent="1" source="oS8uskOPYeTFuWlc-3pK-29" target="oS8uskOPYeTFuWlc-3pK-2" edge="1">
                    <mxGeometry relative="1" as="geometry">
                        <mxPoint x="549.13" y="660" as="sourcePoint"/>
                        <mxPoint x="548.88" y="630" as="targetPoint"/>
                    </mxGeometry>
                </mxCell>
                <mxCell id="oS8uskOPYeTFuWlc-3pK-28" value="SPEC. TEC." style="whiteSpace=wrap;html=1;align=center;" parent="1" vertex="1">
                    <mxGeometry x="369" y="675" width="100" height="40" as="geometry"/>
                </mxCell>
                <mxCell id="oS8uskOPYeTFuWlc-3pK-29" value="AZIENDA COST." style="whiteSpace=wrap;html=1;align=center;" parent="1" vertex="1">
                    <mxGeometry x="499" y="675" width="100" height="40" as="geometry"/>
                </mxCell>
                <mxCell id="oS8uskOPYeTFuWlc-3pK-42" style="rounded=0;orthogonalLoop=1;jettySize=auto;html=1;entryX=0.75;entryY=1;entryDx=0;entryDy=0;endArrow=none;endFill=0;" parent="1" source="oS8uskOPYeTFuWlc-3pK-30" target="oS8uskOPYeTFuWlc-3pK-25" edge="1">
                    <mxGeometry relative="1" as="geometry"/>
                </mxCell>
                <mxCell id="oS8uskOPYeTFuWlc-3pK-30" value="carico_max" style="ellipse;whiteSpace=wrap;html=1;align=center;fontFamily=Helvetica;fontSize=11;fontColor=default;labelPosition=center;verticalLabelPosition=bottom;verticalAlign=top;" parent="1" vertex="1">
                    <mxGeometry x="308" y="740" width="10" height="10" as="geometry"/>
                </mxCell>
                <mxCell id="oS8uskOPYeTFuWlc-3pK-41" style="rounded=0;orthogonalLoop=1;jettySize=auto;html=1;entryX=0.25;entryY=1;entryDx=0;entryDy=0;endArrow=none;endFill=0;" parent="1" source="oS8uskOPYeTFuWlc-3pK-31" target="oS8uskOPYeTFuWlc-3pK-25" edge="1">
                    <mxGeometry relative="1" as="geometry"/>
                </mxCell>
                <mxCell id="oS8uskOPYeTFuWlc-3pK-31" value="persone_max" style="ellipse;whiteSpace=wrap;html=1;align=center;fontFamily=Helvetica;fontSize=11;fontColor=default;labelPosition=center;verticalLabelPosition=bottom;verticalAlign=top;" parent="1" vertex="1">
                    <mxGeometry x="252.75" y="750" width="10" height="10" as="geometry"/>
                </mxCell>
                <mxCell id="oS8uskOPYeTFuWlc-3pK-32" style="shape=connector;rounded=0;orthogonalLoop=1;jettySize=auto;html=1;entryX=0.25;entryY=1;entryDx=0;entryDy=0;labelBackgroundColor=default;strokeColor=default;align=center;verticalAlign=middle;fontFamily=Helvetica;fontSize=11;fontColor=default;endArrow=none;endFill=0;" parent="1" source="oS8uskOPYeTFuWlc-3pK-33" target="oS8uskOPYeTFuWlc-3pK-28" edge="1">
                    <mxGeometry relative="1" as="geometry">
                        <mxPoint x="381.5" y="760" as="targetPoint"/>
                    </mxGeometry>
                </mxCell>
                <mxCell id="oS8uskOPYeTFuWlc-3pK-33" value="peso" style="ellipse;whiteSpace=wrap;html=1;align=center;fontFamily=Helvetica;fontSize=11;fontColor=default;labelPosition=center;verticalLabelPosition=bottom;verticalAlign=middle;" parent="1" vertex="1">
                    <mxGeometry x="371.75" y="740" width="10" height="10" as="geometry"/>
                </mxCell>
                <mxCell id="oS8uskOPYeTFuWlc-3pK-34" style="shape=connector;rounded=0;orthogonalLoop=1;jettySize=auto;html=1;entryX=0.5;entryY=1;entryDx=0;entryDy=0;labelBackgroundColor=default;strokeColor=default;align=center;verticalAlign=middle;fontFamily=Helvetica;fontSize=11;fontColor=default;endArrow=none;endFill=0;" parent="1" source="oS8uskOPYeTFuWlc-3pK-35" target="oS8uskOPYeTFuWlc-3pK-28" edge="1">
                    <mxGeometry relative="1" as="geometry">
                        <mxPoint x="416.5" y="766" as="targetPoint"/>
                    </mxGeometry>
                </mxCell>
                <mxCell id="oS8uskOPYeTFuWlc-3pK-35" value="lunghezza" style="ellipse;whiteSpace=wrap;html=1;align=center;fontFamily=Helvetica;fontSize=11;fontColor=default;labelPosition=center;verticalLabelPosition=bottom;verticalAlign=middle;" parent="1" vertex="1">
                    <mxGeometry x="401.75" y="760" width="10" height="10" as="geometry"/>
                </mxCell>
                <mxCell id="oS8uskOPYeTFuWlc-3pK-36" style="shape=connector;rounded=0;orthogonalLoop=1;jettySize=auto;html=1;entryX=0.75;entryY=1;entryDx=0;entryDy=0;labelBackgroundColor=default;strokeColor=default;align=center;verticalAlign=middle;fontFamily=Helvetica;fontSize=11;fontColor=default;endArrow=none;endFill=0;" parent="1" source="oS8uskOPYeTFuWlc-3pK-37" target="oS8uskOPYeTFuWlc-3pK-28" edge="1">
                    <mxGeometry relative="1" as="geometry">
                        <mxPoint x="452.5" y="760" as="targetPoint"/>
                    </mxGeometry>
                </mxCell>
                <mxCell id="oS8uskOPYeTFuWlc-3pK-37" value="apertura_alare" style="ellipse;whiteSpace=wrap;html=1;align=center;fontFamily=Helvetica;fontSize=11;fontColor=default;labelPosition=center;verticalLabelPosition=bottom;verticalAlign=middle;" parent="1" vertex="1">
                    <mxGeometry x="451.75" y="740" width="10" height="10" as="geometry"/>
                </mxCell>
                <mxCell id="oS8uskOPYeTFuWlc-3pK-38" style="shape=connector;rounded=0;orthogonalLoop=1;jettySize=auto;html=1;entryX=0.5;entryY=1;entryDx=0;entryDy=0;labelBackgroundColor=default;strokeColor=default;align=center;verticalAlign=middle;fontFamily=Helvetica;fontSize=11;fontColor=default;endArrow=none;endFill=0;" parent="1" source="oS8uskOPYeTFuWlc-3pK-39" target="oS8uskOPYeTFuWlc-3pK-29" edge="1">
                    <mxGeometry relative="1" as="geometry">
                        <mxPoint x="555.63" y="734" as="targetPoint"/>
                    </mxGeometry>
                </mxCell>
                <mxCell id="oS8uskOPYeTFuWlc-3pK-39" value="nome" style="ellipse;whiteSpace=wrap;html=1;align=center;fontFamily=Helvetica;fontSize=11;fontColor=default;labelPosition=center;verticalLabelPosition=bottom;verticalAlign=middle;fillColor=#050505;" parent="1" vertex="1">
                    <mxGeometry x="544" y="730" width="10" height="10" as="geometry"/>
                </mxCell>
                <mxCell id="oS8uskOPYeTFuWlc-3pK-47" style="edgeStyle=orthogonalEdgeStyle;rounded=0;orthogonalLoop=1;jettySize=auto;html=1;startArrow=none;startFill=0;endArrow=none;endFill=0;" parent="1" source="oS8uskOPYeTFuWlc-3pK-46" edge="1">
                    <mxGeometry relative="1" as="geometry">
                        <mxPoint x="322.75" y="725" as="targetPoint"/>
                    </mxGeometry>
                </mxCell>
                <mxCell id="oS8uskOPYeTFuWlc-3pK-46" value="" style="ellipse;whiteSpace=wrap;html=1;align=center;fontFamily=Helvetica;fontSize=11;fontColor=default;labelPosition=center;verticalLabelPosition=bottom;verticalAlign=middle;fillColor=#050505;" parent="1" vertex="1">
                    <mxGeometry x="228" y="720" width="10" height="10" as="geometry"/>
                </mxCell>
                <mxCell id="oS8uskOPYeTFuWlc-3pK-48" style="edgeStyle=orthogonalEdgeStyle;rounded=0;orthogonalLoop=1;jettySize=auto;html=1;startArrow=none;startFill=0;endArrow=none;endFill=0;" parent="1" source="oS8uskOPYeTFuWlc-3pK-49" edge="1">
                    <mxGeometry relative="1" as="geometry">
                        <mxPoint x="454.13" y="725" as="targetPoint"/>
                    </mxGeometry>
                </mxCell>
                <mxCell id="oS8uskOPYeTFuWlc-3pK-49" value="" style="ellipse;whiteSpace=wrap;html=1;align=center;fontFamily=Helvetica;fontSize=11;fontColor=default;labelPosition=center;verticalLabelPosition=bottom;verticalAlign=middle;fillColor=#050505;" parent="1" vertex="1">
                    <mxGeometry x="359.38" y="720" width="10" height="10" as="geometry"/>
                </mxCell>
            </root>
        </mxGraphModel>
    </diagram>
    <diagram id="xC8tBzaZ1ZMg9xiAxQnG" name="NO_assistenti_stan">
        <mxGraphModel dx="746" dy="467" grid="1" gridSize="10" guides="1" tooltips="1" connect="1" arrows="1" fold="1" page="1" pageScale="1" pageWidth="827" pageHeight="1169" math="0" shadow="0">
            <root>
                <mxCell id="0"/>
                <mxCell id="1" parent="0"/>
                <mxCell id="GZuFngdw0K1UWdduLUoC-1" value="PERSONALE" style="whiteSpace=wrap;html=1;align=center;" parent="1" vertex="1">
                    <mxGeometry x="364" y="500" width="100" height="40" as="geometry"/>
                </mxCell>
                <mxCell id="GZuFngdw0K1UWdduLUoC-2" value="EQUIPAGGIO" style="whiteSpace=wrap;html=1;align=center;" parent="1" vertex="1">
                    <mxGeometry x="364" y="650" width="100" height="40" as="geometry"/>
                </mxCell>
                <mxCell id="GZuFngdw0K1UWdduLUoC-3" value="" style="endArrow=none;html=1;rounded=0;exitX=0.5;exitY=1;exitDx=0;exitDy=0;entryX=0.5;entryY=0;entryDx=0;entryDy=0;edgeStyle=orthogonalEdgeStyle;" parent="1" source="GZuFngdw0K1UWdduLUoC-1" target="GZuFngdw0K1UWdduLUoC-7" edge="1">
                    <mxGeometry relative="1" as="geometry">
                        <mxPoint x="414" y="540" as="sourcePoint"/>
                        <mxPoint x="414" y="570" as="targetPoint"/>
                    </mxGeometry>
                </mxCell>
                <mxCell id="GZuFngdw0K1UWdduLUoC-4" value="(1,1)" style="edgeLabel;html=1;align=center;verticalAlign=middle;resizable=0;points=[];" parent="GZuFngdw0K1UWdduLUoC-3" connectable="0" vertex="1">
                    <mxGeometry x="-0.4" y="1" relative="1" as="geometry">
                        <mxPoint x="-1" y="8" as="offset"/>
                    </mxGeometry>
                </mxCell>
                <mxCell id="GZuFngdw0K1UWdduLUoC-5" value="" style="endArrow=none;html=1;rounded=0;exitX=0.5;exitY=1;exitDx=0;exitDy=0;entryX=0.5;entryY=0;entryDx=0;entryDy=0;edgeStyle=orthogonalEdgeStyle;" parent="1" source="GZuFngdw0K1UWdduLUoC-7" target="GZuFngdw0K1UWdduLUoC-2" edge="1">
                    <mxGeometry relative="1" as="geometry">
                        <mxPoint x="414" y="630" as="sourcePoint"/>
                        <mxPoint x="574" y="540" as="targetPoint"/>
                    </mxGeometry>
                </mxCell>
                <mxCell id="GZuFngdw0K1UWdduLUoC-6" value="(1,N)" style="edgeLabel;html=1;align=center;verticalAlign=middle;resizable=0;points=[];fontSize=11;fontFamily=Helvetica;fontColor=default;" parent="GZuFngdw0K1UWdduLUoC-5" connectable="0" vertex="1">
                    <mxGeometry x="-0.1037" relative="1" as="geometry">
                        <mxPoint as="offset"/>
                    </mxGeometry>
                </mxCell>
                <mxCell id="GZuFngdw0K1UWdduLUoC-7" value="Compone" style="shape=rhombus;perimeter=rhombusPerimeter;whiteSpace=wrap;html=1;align=center;" parent="1" vertex="1">
                    <mxGeometry x="364" y="570" width="100" height="50" as="geometry"/>
                </mxCell>
                <mxCell id="jxHAO01YJIiPBbHoQY9q-2" style="edgeStyle=orthogonalEdgeStyle;shape=connector;rounded=0;orthogonalLoop=1;jettySize=auto;html=1;entryX=0.25;entryY=0;entryDx=0;entryDy=0;labelBackgroundColor=default;strokeColor=default;align=center;verticalAlign=middle;fontFamily=Helvetica;fontSize=11;fontColor=default;endArrow=none;endFill=0;" parent="1" source="oRMwrgmmOawj_BVbT-nX-1" target="GZuFngdw0K1UWdduLUoC-1" edge="1">
                    <mxGeometry relative="1" as="geometry"/>
                </mxCell>
                <mxCell id="oRMwrgmmOawj_BVbT-nX-1" value="CF" style="ellipse;whiteSpace=wrap;html=1;align=center;fontStyle=0;verticalAlign=bottom;horizontal=1;labelPosition=center;verticalLabelPosition=top;labelBackgroundColor=none;fillStyle=auto;fillColor=#050505;" parent="1" vertex="1">
                    <mxGeometry x="384" y="480" width="10" height="10" as="geometry"/>
                </mxCell>
                <mxCell id="jxHAO01YJIiPBbHoQY9q-3" style="edgeStyle=orthogonalEdgeStyle;shape=connector;rounded=0;orthogonalLoop=1;jettySize=auto;html=1;entryX=0.75;entryY=0;entryDx=0;entryDy=0;labelBackgroundColor=default;strokeColor=default;align=center;verticalAlign=middle;fontFamily=Helvetica;fontSize=11;fontColor=default;endArrow=none;endFill=0;" parent="1" source="jxHAO01YJIiPBbHoQY9q-1" target="GZuFngdw0K1UWdduLUoC-1" edge="1">
                    <mxGeometry relative="1" as="geometry"/>
                </mxCell>
                <mxCell id="jxHAO01YJIiPBbHoQY9q-1" value="tipo" style="ellipse;whiteSpace=wrap;html=1;align=center;dashed=1;fontFamily=Helvetica;fontSize=11;fontColor=default;labelPosition=center;verticalLabelPosition=top;verticalAlign=bottom;" parent="1" vertex="1">
                    <mxGeometry x="434" y="480" width="10" height="10" as="geometry"/>
                </mxCell>
                <mxCell id="-iYIkd85yk-szGpyeWb5-1" value="&lt;div&gt;Nota: attributo tipo puo' essere hostess oppure steward.&lt;/div&gt;" style="text;html=1;align=left;verticalAlign=middle;resizable=0;points=[];autosize=1;strokeColor=none;fillColor=none;fontSize=11;fontFamily=Helvetica;fontColor=default;fontStyle=1" parent="1" vertex="1">
                    <mxGeometry x="279" y="380" width="320" height="30" as="geometry"/>
                </mxCell>
            </root>
        </mxGraphModel>
    </diagram>
    <diagram id="W3ULXoVthn7BF6onZsOM" name="NO_assistenti_thomas">
        <mxGraphModel grid="1" page="1" gridSize="10" guides="1" tooltips="1" connect="1" arrows="1" fold="1" pageScale="1" pageWidth="827" pageHeight="1169" math="0" shadow="0">
            <root>
                <mxCell id="0"/>
                <mxCell id="1" parent="0"/>
                <mxCell id="8mBXB4MeN-FwVvbDep6l-1" value="Hostess" style="whiteSpace=wrap;html=1;align=center;" vertex="1" parent="1">
                    <mxGeometry x="200" y="410" width="100" height="40" as="geometry"/>
                </mxCell>
                <mxCell id="8mBXB4MeN-FwVvbDep6l-2" value="Steward" style="whiteSpace=wrap;html=1;align=center;" vertex="1" parent="1">
                    <mxGeometry x="320" y="410" width="100" height="40" as="geometry"/>
                </mxCell>
                <mxCell id="8mBXB4MeN-FwVvbDep6l-4" value="PersonaleCabina" style="whiteSpace=wrap;html=1;align=center;" vertex="1" parent="1">
                    <mxGeometry x="260" y="570" width="100" height="40" as="geometry"/>
                </mxCell>
                <mxCell id="8mBXB4MeN-FwVvbDep6l-5" value="EQUIPAGGIO" style="whiteSpace=wrap;html=1;align=center;" vertex="1" parent="1">
                    <mxGeometry x="260" y="720" width="100" height="40" as="geometry"/>
                </mxCell>
                <mxCell id="8mBXB4MeN-FwVvbDep6l-7" value="" style="endArrow=none;html=1;rounded=0;exitX=0.5;exitY=1;exitDx=0;exitDy=0;entryX=0.5;entryY=0;entryDx=0;entryDy=0;edgeStyle=orthogonalEdgeStyle;" edge="1" parent="1" source="8mBXB4MeN-FwVvbDep6l-2" target="rfEGDVTdk22OrE-ShUFt-14">
                    <mxGeometry relative="1" as="geometry">
                        <mxPoint x="310" y="530" as="sourcePoint"/>
                        <mxPoint x="380" y="450" as="targetPoint"/>
                    </mxGeometry>
                </mxCell>
                <mxCell id="8mBXB4MeN-FwVvbDep6l-8" value="(1,1)" style="edgeLabel;html=1;align=center;verticalAlign=middle;resizable=0;points=[];" connectable="0" vertex="1" parent="8mBXB4MeN-FwVvbDep6l-7">
                    <mxGeometry x="-0.7279" y="-2" relative="1" as="geometry">
                        <mxPoint x="2" y="7" as="offset"/>
                    </mxGeometry>
                </mxCell>
                <mxCell id="8mBXB4MeN-FwVvbDep6l-10" value="" style="endArrow=none;html=1;rounded=0;exitX=0.5;exitY=0;exitDx=0;exitDy=0;entryX=0.5;entryY=1;entryDx=0;entryDy=0;edgeStyle=orthogonalEdgeStyle;" edge="1" parent="1" source="rfEGDVTdk22OrE-ShUFt-13" target="8mBXB4MeN-FwVvbDep6l-1">
                    <mxGeometry relative="1" as="geometry">
                        <mxPoint x="240" y="450" as="sourcePoint"/>
                        <mxPoint x="470" y="530" as="targetPoint"/>
                    </mxGeometry>
                </mxCell>
                <mxCell id="8mBXB4MeN-FwVvbDep6l-11" value="(1,1)" style="edgeLabel;html=1;align=center;verticalAlign=middle;resizable=0;points=[];" connectable="0" vertex="1" parent="8mBXB4MeN-FwVvbDep6l-10">
                    <mxGeometry x="0.7231" relative="1" as="geometry">
                        <mxPoint y="7" as="offset"/>
                    </mxGeometry>
                </mxCell>
                <mxCell id="8mBXB4MeN-FwVvbDep6l-12" value="" style="endArrow=none;html=1;rounded=0;exitX=0.75;exitY=0;exitDx=0;exitDy=0;entryX=0.5;entryY=1;entryDx=0;entryDy=0;edgeStyle=orthogonalEdgeStyle;" edge="1" parent="1" source="8mBXB4MeN-FwVvbDep6l-4" target="rfEGDVTdk22OrE-ShUFt-14">
                    <mxGeometry relative="1" as="geometry">
                        <mxPoint x="310" y="530" as="sourcePoint"/>
                        <mxPoint x="380" y="510" as="targetPoint"/>
                    </mxGeometry>
                </mxCell>
                <mxCell id="8mBXB4MeN-FwVvbDep6l-13" value="(0,N)" style="edgeLabel;html=1;align=center;verticalAlign=middle;resizable=0;points=[];" connectable="0" vertex="1" parent="8mBXB4MeN-FwVvbDep6l-12">
                    <mxGeometry x="-0.5414" y="1" relative="1" as="geometry">
                        <mxPoint x="16" y="-3" as="offset"/>
                    </mxGeometry>
                </mxCell>
                <mxCell id="8mBXB4MeN-FwVvbDep6l-14" value="" style="endArrow=none;html=1;rounded=0;exitX=0.5;exitY=1;exitDx=0;exitDy=0;entryX=0.5;entryY=0;entryDx=0;entryDy=0;edgeStyle=orthogonalEdgeStyle;" edge="1" parent="1" source="8mBXB4MeN-FwVvbDep6l-4" target="rfEGDVTdk22OrE-ShUFt-10">
                    <mxGeometry relative="1" as="geometry">
                        <mxPoint x="310" y="610" as="sourcePoint"/>
                        <mxPoint x="310" y="640" as="targetPoint"/>
                    </mxGeometry>
                </mxCell>
                <mxCell id="8mBXB4MeN-FwVvbDep6l-15" value="(1,1)" style="edgeLabel;html=1;align=center;verticalAlign=middle;resizable=0;points=[];" connectable="0" vertex="1" parent="8mBXB4MeN-FwVvbDep6l-14">
                    <mxGeometry x="-0.4" y="1" relative="1" as="geometry">
                        <mxPoint x="-1" y="8" as="offset"/>
                    </mxGeometry>
                </mxCell>
                <mxCell id="8mBXB4MeN-FwVvbDep6l-17" value="" style="endArrow=none;html=1;rounded=0;exitX=0.5;exitY=1;exitDx=0;exitDy=0;entryX=0.5;entryY=0;entryDx=0;entryDy=0;edgeStyle=orthogonalEdgeStyle;" edge="1" parent="1" source="rfEGDVTdk22OrE-ShUFt-10" target="8mBXB4MeN-FwVvbDep6l-5">
                    <mxGeometry relative="1" as="geometry">
                        <mxPoint x="310" y="700" as="sourcePoint"/>
                        <mxPoint x="470" y="610" as="targetPoint"/>
                    </mxGeometry>
                </mxCell>
                <mxCell id="rfEGDVTdk22OrE-ShUFt-12" value="(1,N)" style="edgeLabel;html=1;align=center;verticalAlign=middle;resizable=0;points=[];fontSize=11;fontFamily=Helvetica;fontColor=default;" connectable="0" vertex="1" parent="8mBXB4MeN-FwVvbDep6l-17">
                    <mxGeometry x="-0.1037" relative="1" as="geometry">
                        <mxPoint as="offset"/>
                    </mxGeometry>
                </mxCell>
                <mxCell id="8mBXB4MeN-FwVvbDep6l-19" value="" style="endArrow=none;html=1;rounded=0;exitX=0.5;exitY=1;exitDx=0;exitDy=0;entryX=0.25;entryY=0;entryDx=0;entryDy=0;edgeStyle=orthogonalEdgeStyle;" edge="1" parent="1" source="rfEGDVTdk22OrE-ShUFt-13" target="8mBXB4MeN-FwVvbDep6l-4">
                    <mxGeometry relative="1" as="geometry">
                        <mxPoint x="240" y="510" as="sourcePoint"/>
                        <mxPoint x="470" y="570" as="targetPoint"/>
                    </mxGeometry>
                </mxCell>
                <mxCell id="8mBXB4MeN-FwVvbDep6l-20" value="(0,N)" style="edgeLabel;html=1;align=center;verticalAlign=middle;resizable=0;points=[];" connectable="0" vertex="1" parent="8mBXB4MeN-FwVvbDep6l-19">
                    <mxGeometry x="0.574" y="-1" relative="1" as="geometry">
                        <mxPoint x="-14" y="-4" as="offset"/>
                    </mxGeometry>
                </mxCell>
                <mxCell id="QNb7PiFClXXXaHY0jRJx-1" value="&lt;div&gt;Vincolo di integrità:&lt;/div&gt;&lt;div&gt;&lt;ul&gt;&lt;li&gt;PersonaleCabina non nullo.&lt;/li&gt;&lt;/ul&gt;&lt;/div&gt;" style="text;html=1;align=left;verticalAlign=middle;resizable=0;points=[];autosize=1;strokeColor=none;fillColor=none;fontSize=11;fontFamily=Helvetica;fontColor=default;fontStyle=1" vertex="1" parent="1">
                    <mxGeometry x="430" y="620" width="210" height="60" as="geometry"/>
                </mxCell>
                <mxCell id="rfEGDVTdk22OrE-ShUFt-10" value="Compone" style="shape=rhombus;perimeter=rhombusPerimeter;whiteSpace=wrap;html=1;align=center;" vertex="1" parent="1">
                    <mxGeometry x="260" y="640" width="100" height="50" as="geometry"/>
                </mxCell>
                <mxCell id="rfEGDVTdk22OrE-ShUFt-13" value="R1" style="shape=rhombus;perimeter=rhombusPerimeter;whiteSpace=wrap;html=1;align=center;" vertex="1" parent="1">
                    <mxGeometry x="200" y="480" width="100" height="50" as="geometry"/>
                </mxCell>
                <mxCell id="rfEGDVTdk22OrE-ShUFt-14" value="R2" style="shape=rhombus;perimeter=rhombusPerimeter;whiteSpace=wrap;html=1;align=center;" vertex="1" parent="1">
                    <mxGeometry x="320" y="480" width="100" height="50" as="geometry"/>
                </mxCell>
            </root>
        </mxGraphModel>
    </diagram>
</mxfile>